<?xml version="1.0" encoding="utf-8" standalone="no"?>
<!DOCTYPE svg PUBLIC "-//W3C//DTD SVG 1.1//EN"
  "http://www.w3.org/Graphics/SVG/1.1/DTD/svg11.dtd">
<svg xmlns:xlink="http://www.w3.org/1999/xlink" width="864pt" height="468pt" viewBox="0 0 864 468" xmlns="http://www.w3.org/2000/svg" version="1.1">
 <metadata>
  <rdf:RDF xmlns:dc="http://purl.org/dc/elements/1.1/" xmlns:cc="http://creativecommons.org/ns#" xmlns:rdf="http://www.w3.org/1999/02/22-rdf-syntax-ns#">
   <cc:Work>
    <dc:type rdf:resource="http://purl.org/dc/dcmitype/StillImage"/>
    <dc:format>image/svg+xml</dc:format>
    <dc:creator>
     <cc:Agent>
      <dc:title>Matplotlib v3.11.1, https://matplotlib.org/</dc:title>
     </cc:Agent>
    </dc:creator>
   </cc:Work>
  </rdf:RDF>
 </metadata>
 <defs>
  <style type="text/css">*{stroke-linejoin: round; stroke-linecap: butt}</style>
 </defs>
 <g id="figure_1">
  <g id="patch_1">
   <path d="M 0 468 
L 864 468 
L 864 0 
L 0 0 
z
" style="fill: #ffffff"/>
  </g>
  <g id="axes_1">
   <g id="patch_2">
    <path d="M 45.99649 361.16043 
L 857.500385 361.16043 
L 857.500385 19.030178 
L 45.99649 19.030178 
z
" style="fill: #f6f8fa"/>
   </g>
   <g id="patch_3">
    <path d="M 136.163589 361.16043 
L 767.333286 361.16043 
L 767.333286 19.030178 
L 136.163589 19.030178 
z
" clip-path="url(#p8870170966)" style="fill: #e2e8f0; opacity: 0.75; stroke: #e2e8f0; stroke-linejoin: miter"/>
   </g>
   <g id="matplotlib.axis_1">
    <g id="xtick_1">
     <g id="line2d_1">
      <path d="M 45.99649 361.16043 
L 45.99649 19.030178 
" clip-path="url(#p8870170966)" style="fill: none; stroke: #b0b0b0; stroke-opacity: 0.18; stroke-width: 0.8; stroke-linecap: square"/>
     </g>
     <g id="line2d_2">
      <defs>
       <path id="m5e257b2b6a" d="M 0 0 
L 0 3.5 
" style="stroke: #000000; stroke-width: 0.8"/>
      </defs>
      <g>
       <use xlink:href="#m5e257b2b6a" x="45.99649" y="361.16043" style="stroke: #000000; stroke-width: 0.8"/>
      </g>
     </g>
     <g id="text_1">
      <!-- 0 -->
      <g transform="translate(42.497115 376.517852) scale(0.11 -0.11)">
       <defs>
        <path id="DejaVuSans-13" d="M 2034 4250 
Q 1547 4250 1301 3770 
Q 1056 3291 1056 2328 
Q 1056 1369 1301 889 
Q 1547 409 2034 409 
Q 2525 409 2770 889 
Q 3016 1369 3016 2328 
Q 3016 3291 2770 3770 
Q 2525 4250 2034 4250 
z
M 2034 4750 
Q 2819 4750 3233 4129 
Q 3647 3509 3647 2328 
Q 3647 1150 3233 529 
Q 2819 -91 2034 -91 
Q 1250 -91 836 529 
Q 422 1150 422 2328 
Q 422 3509 836 4129 
Q 1250 4750 2034 4750 
z
" transform="scale(0.015625)"/>
       </defs>
       <use xlink:href="#DejaVuSans-13"/>
      </g>
     </g>
    </g>
    <g id="xtick_2">
     <g id="line2d_3">
      <path d="M 136.163589 361.16043 
L 136.163589 19.030178 
" clip-path="url(#p8870170966)" style="fill: none; stroke: #b0b0b0; stroke-opacity: 0.18; stroke-width: 0.8; stroke-linecap: square"/>
     </g>
     <g id="line2d_4">
      <g>
       <use xlink:href="#m5e257b2b6a" x="136.163589" y="361.16043" style="stroke: #000000; stroke-width: 0.8"/>
      </g>
     </g>
     <g id="text_2">
      <!-- 1 -->
      <g transform="translate(132.664214 376.517852) scale(0.11 -0.11)">
       <defs>
        <path id="DejaVuSans-14" d="M 794 531 
L 1825 531 
L 1825 4091 
L 703 3866 
L 703 4441 
L 1819 4666 
L 2450 4666 
L 2450 531 
L 3481 531 
L 3481 0 
L 794 0 
L 794 531 
z
" transform="scale(0.015625)"/>
       </defs>
       <use xlink:href="#DejaVuSans-14"/>
      </g>
     </g>
    </g>
    <g id="xtick_3">
     <g id="line2d_5">
      <path d="M 226.330689 361.16043 
L 226.330689 19.030178 
" clip-path="url(#p8870170966)" style="fill: none; stroke: #b0b0b0; stroke-opacity: 0.18; stroke-width: 0.8; stroke-linecap: square"/>
     </g>
     <g id="line2d_6">
      <g>
       <use xlink:href="#m5e257b2b6a" x="226.330689" y="361.16043" style="stroke: #000000; stroke-width: 0.8"/>
      </g>
     </g>
     <g id="text_3">
      <!-- 2 -->
      <g transform="translate(222.831314 376.517852) scale(0.11 -0.11)">
       <defs>
        <path id="DejaVuSans-15" d="M 1228 531 
L 3431 531 
L 3431 0 
L 469 0 
L 469 531 
Q 828 903 1448 1529 
Q 2069 2156 2228 2338 
Q 2531 2678 2651 2914 
Q 2772 3150 2772 3378 
Q 2772 3750 2511 3984 
Q 2250 4219 1831 4219 
Q 1534 4219 1204 4116 
Q 875 4013 500 3803 
L 500 4441 
Q 881 4594 1212 4672 
Q 1544 4750 1819 4750 
Q 2544 4750 2975 4387 
Q 3406 4025 3406 3419 
Q 3406 3131 3298 2873 
Q 3191 2616 2906 2266 
Q 2828 2175 2409 1742 
Q 1991 1309 1228 531 
z
" transform="scale(0.015625)"/>
       </defs>
       <use xlink:href="#DejaVuSans-15"/>
      </g>
     </g>
    </g>
    <g id="xtick_4">
     <g id="line2d_7">
      <path d="M 316.497788 361.16043 
L 316.497788 19.030178 
" clip-path="url(#p8870170966)" style="fill: none; stroke: #b0b0b0; stroke-opacity: 0.18; stroke-width: 0.8; stroke-linecap: square"/>
     </g>
     <g id="line2d_8">
      <g>
       <use xlink:href="#m5e257b2b6a" x="316.497788" y="361.16043" style="stroke: #000000; stroke-width: 0.8"/>
      </g>
     </g>
     <g id="text_4">
      <!-- 3 -->
      <g transform="translate(312.998413 376.517852) scale(0.11 -0.11)">
       <defs>
        <path id="DejaVuSans-16" d="M 2597 2516 
Q 3050 2419 3304 2112 
Q 3559 1806 3559 1356 
Q 3559 666 3084 287 
Q 2609 -91 1734 -91 
Q 1441 -91 1130 -33 
Q 819 25 488 141 
L 488 750 
Q 750 597 1062 519 
Q 1375 441 1716 441 
Q 2309 441 2620 675 
Q 2931 909 2931 1356 
Q 2931 1769 2642 2001 
Q 2353 2234 1838 2234 
L 1294 2234 
L 1294 2753 
L 1863 2753 
Q 2328 2753 2575 2939 
Q 2822 3125 2822 3475 
Q 2822 3834 2567 4026 
Q 2313 4219 1838 4219 
Q 1578 4219 1281 4162 
Q 984 4106 628 3988 
L 628 4550 
Q 988 4650 1302 4700 
Q 1616 4750 1894 4750 
Q 2613 4750 3031 4423 
Q 3450 4097 3450 3541 
Q 3450 3153 3228 2886 
Q 3006 2619 2597 2516 
z
" transform="scale(0.015625)"/>
       </defs>
       <use xlink:href="#DejaVuSans-16"/>
      </g>
     </g>
    </g>
    <g id="xtick_5">
     <g id="line2d_9">
      <path d="M 406.664888 361.16043 
L 406.664888 19.030178 
" clip-path="url(#p8870170966)" style="fill: none; stroke: #b0b0b0; stroke-opacity: 0.18; stroke-width: 0.8; stroke-linecap: square"/>
     </g>
     <g id="line2d_10">
      <g>
       <use xlink:href="#m5e257b2b6a" x="406.664888" y="361.16043" style="stroke: #000000; stroke-width: 0.8"/>
      </g>
     </g>
     <g id="text_5">
      <!-- 4 -->
      <g transform="translate(403.165513 376.517852) scale(0.11 -0.11)">
       <defs>
        <path id="DejaVuSans-17" d="M 2419 4116 
L 825 1625 
L 2419 1625 
L 2419 4116 
z
M 2253 4666 
L 3047 4666 
L 3047 1625 
L 3713 1625 
L 3713 1100 
L 3047 1100 
L 3047 0 
L 2419 0 
L 2419 1100 
L 313 1100 
L 313 1709 
L 2253 4666 
z
" transform="scale(0.015625)"/>
       </defs>
       <use xlink:href="#DejaVuSans-17"/>
      </g>
     </g>
    </g>
    <g id="xtick_6">
     <g id="line2d_11">
      <path d="M 496.831987 361.16043 
L 496.831987 19.030178 
" clip-path="url(#p8870170966)" style="fill: none; stroke: #b0b0b0; stroke-opacity: 0.18; stroke-width: 0.8; stroke-linecap: square"/>
     </g>
     <g id="line2d_12">
      <g>
       <use xlink:href="#m5e257b2b6a" x="496.831987" y="361.16043" style="stroke: #000000; stroke-width: 0.8"/>
      </g>
     </g>
     <g id="text_6">
      <!-- 5 -->
      <g transform="translate(493.332612 376.517852) scale(0.11 -0.11)">
       <defs>
        <path id="DejaVuSans-18" d="M 691 4666 
L 3169 4666 
L 3169 4134 
L 1269 4134 
L 1269 2991 
Q 1406 3038 1543 3061 
Q 1681 3084 1819 3084 
Q 2600 3084 3056 2656 
Q 3513 2228 3513 1497 
Q 3513 744 3044 326 
Q 2575 -91 1722 -91 
Q 1428 -91 1123 -41 
Q 819 9 494 109 
L 494 744 
Q 775 591 1075 516 
Q 1375 441 1709 441 
Q 2250 441 2565 725 
Q 2881 1009 2881 1497 
Q 2881 1984 2565 2268 
Q 2250 2553 1709 2553 
Q 1456 2553 1204 2497 
Q 953 2441 691 2322 
L 691 4666 
z
" transform="scale(0.015625)"/>
       </defs>
       <use xlink:href="#DejaVuSans-18"/>
      </g>
     </g>
    </g>
    <g id="xtick_7">
     <g id="line2d_13">
      <path d="M 586.999087 361.16043 
L 586.999087 19.030178 
" clip-path="url(#p8870170966)" style="fill: none; stroke: #b0b0b0; stroke-opacity: 0.18; stroke-width: 0.8; stroke-linecap: square"/>
     </g>
     <g id="line2d_14">
      <g>
       <use xlink:href="#m5e257b2b6a" x="586.999087" y="361.16043" style="stroke: #000000; stroke-width: 0.8"/>
      </g>
     </g>
     <g id="text_7">
      <!-- 6 -->
      <g transform="translate(583.499712 376.517852) scale(0.11 -0.11)">
       <defs>
        <path id="DejaVuSans-19" d="M 2113 2584 
Q 1688 2584 1439 2293 
Q 1191 2003 1191 1497 
Q 1191 994 1439 701 
Q 1688 409 2113 409 
Q 2538 409 2786 701 
Q 3034 994 3034 1497 
Q 3034 2003 2786 2293 
Q 2538 2584 2113 2584 
z
M 3366 4563 
L 3366 3988 
Q 3128 4100 2886 4159 
Q 2644 4219 2406 4219 
Q 1781 4219 1451 3797 
Q 1122 3375 1075 2522 
Q 1259 2794 1537 2939 
Q 1816 3084 2150 3084 
Q 2853 3084 3261 2657 
Q 3669 2231 3669 1497 
Q 3669 778 3244 343 
Q 2819 -91 2113 -91 
Q 1303 -91 875 529 
Q 447 1150 447 2328 
Q 447 3434 972 4092 
Q 1497 4750 2381 4750 
Q 2619 4750 2861 4703 
Q 3103 4656 3366 4563 
z
" transform="scale(0.015625)"/>
       </defs>
       <use xlink:href="#DejaVuSans-19"/>
      </g>
     </g>
    </g>
    <g id="xtick_8">
     <g id="line2d_15">
      <path d="M 677.166186 361.16043 
L 677.166186 19.030178 
" clip-path="url(#p8870170966)" style="fill: none; stroke: #b0b0b0; stroke-opacity: 0.18; stroke-width: 0.8; stroke-linecap: square"/>
     </g>
     <g id="line2d_16">
      <g>
       <use xlink:href="#m5e257b2b6a" x="677.166186" y="361.16043" style="stroke: #000000; stroke-width: 0.8"/>
      </g>
     </g>
     <g id="text_8">
      <!-- 7 -->
      <g transform="translate(673.666811 376.517852) scale(0.11 -0.11)">
       <defs>
        <path id="DejaVuSans-1a" d="M 525 4666 
L 3525 4666 
L 3525 4397 
L 1831 0 
L 1172 0 
L 2766 4134 
L 525 4134 
L 525 4666 
z
" transform="scale(0.015625)"/>
       </defs>
       <use xlink:href="#DejaVuSans-1a"/>
      </g>
     </g>
    </g>
    <g id="xtick_9">
     <g id="line2d_17">
      <path d="M 767.333286 361.16043 
L 767.333286 19.030178 
" clip-path="url(#p8870170966)" style="fill: none; stroke: #b0b0b0; stroke-opacity: 0.18; stroke-width: 0.8; stroke-linecap: square"/>
     </g>
     <g id="line2d_18">
      <g>
       <use xlink:href="#m5e257b2b6a" x="767.333286" y="361.16043" style="stroke: #000000; stroke-width: 0.8"/>
      </g>
     </g>
     <g id="text_9">
      <!-- 8 -->
      <g transform="translate(763.833911 376.517852) scale(0.11 -0.11)">
       <defs>
        <path id="DejaVuSans-1b" d="M 2034 2216 
Q 1584 2216 1326 1975 
Q 1069 1734 1069 1313 
Q 1069 891 1326 650 
Q 1584 409 2034 409 
Q 2484 409 2743 651 
Q 3003 894 3003 1313 
Q 3003 1734 2745 1975 
Q 2488 2216 2034 2216 
z
M 1403 2484 
Q 997 2584 770 2862 
Q 544 3141 544 3541 
Q 544 4100 942 4425 
Q 1341 4750 2034 4750 
Q 2731 4750 3128 4425 
Q 3525 4100 3525 3541 
Q 3525 3141 3298 2862 
Q 3072 2584 2669 2484 
Q 3125 2378 3379 2068 
Q 3634 1759 3634 1313 
Q 3634 634 3220 271 
Q 2806 -91 2034 -91 
Q 1263 -91 848 271 
Q 434 634 434 1313 
Q 434 1759 690 2068 
Q 947 2378 1403 2484 
z
M 1172 3481 
Q 1172 3119 1398 2916 
Q 1625 2713 2034 2713 
Q 2441 2713 2670 2916 
Q 2900 3119 2900 3481 
Q 2900 3844 2670 4047 
Q 2441 4250 2034 4250 
Q 1625 4250 1398 4047 
Q 1172 3844 1172 3481 
z
" transform="scale(0.015625)"/>
       </defs>
       <use xlink:href="#DejaVuSans-1b"/>
      </g>
     </g>
    </g>
    <g id="xtick_10">
     <g id="line2d_19">
      <path d="M 857.500385 361.16043 
L 857.500385 19.030178 
" clip-path="url(#p8870170966)" style="fill: none; stroke: #b0b0b0; stroke-opacity: 0.18; stroke-width: 0.8; stroke-linecap: square"/>
     </g>
     <g id="line2d_20">
      <g>
       <use xlink:href="#m5e257b2b6a" x="857.500385" y="361.16043" style="stroke: #000000; stroke-width: 0.8"/>
      </g>
     </g>
     <g id="text_10">
      <!-- 9 -->
      <g transform="translate(854.00101 376.517852) scale(0.11 -0.11)">
       <defs>
        <path id="DejaVuSans-1c" d="M 703 97 
L 703 672 
Q 941 559 1184 500 
Q 1428 441 1663 441 
Q 2288 441 2617 861 
Q 2947 1281 2994 2138 
Q 2813 1869 2534 1725 
Q 2256 1581 1919 1581 
Q 1219 1581 811 2004 
Q 403 2428 403 3163 
Q 403 3881 828 4315 
Q 1253 4750 1959 4750 
Q 2769 4750 3195 4129 
Q 3622 3509 3622 2328 
Q 3622 1225 3098 567 
Q 2575 -91 1691 -91 
Q 1453 -91 1209 -44 
Q 966 3 703 97 
z
M 1959 2075 
Q 2384 2075 2632 2365 
Q 2881 2656 2881 3163 
Q 2881 3666 2632 3958 
Q 2384 4250 1959 4250 
Q 1534 4250 1286 3958 
Q 1038 3666 1038 3163 
Q 1038 2656 1286 2365 
Q 1534 2075 1959 2075 
z
" transform="scale(0.015625)"/>
       </defs>
       <use xlink:href="#DejaVuSans-1c"/>
      </g>
     </g>
    </g>
    <g id="text_11">
     <!-- Simulation day — July 26 start -->
     <g transform="translate(368.395938 391.518712) scale(0.11 -0.11)">
      <defs>
       <path id="DejaVuSans-36" d="M 3425 4513 
L 3425 3897 
Q 3066 4069 2747 4153 
Q 2428 4238 2131 4238 
Q 1616 4238 1336 4038 
Q 1056 3838 1056 3469 
Q 1056 3159 1242 3001 
Q 1428 2844 1947 2747 
L 2328 2669 
Q 3034 2534 3370 2195 
Q 3706 1856 3706 1288 
Q 3706 609 3251 259 
Q 2797 -91 1919 -91 
Q 1588 -91 1214 -16 
Q 841 59 441 206 
L 441 856 
Q 825 641 1194 531 
Q 1563 422 1919 422 
Q 2459 422 2753 634 
Q 3047 847 3047 1241 
Q 3047 1584 2836 1778 
Q 2625 1972 2144 2069 
L 1759 2144 
Q 1053 2284 737 2584 
Q 422 2884 422 3419 
Q 422 4038 858 4394 
Q 1294 4750 2059 4750 
Q 2388 4750 2728 4690 
Q 3069 4631 3425 4513 
z
" transform="scale(0.015625)"/>
       <path id="DejaVuSans-4c" d="M 603 3500 
L 1178 3500 
L 1178 0 
L 603 0 
L 603 3500 
z
M 603 4863 
L 1178 4863 
L 1178 4134 
L 603 4134 
L 603 4863 
z
" transform="scale(0.015625)"/>
       <path id="DejaVuSans-50" d="M 3328 2828 
Q 3544 3216 3844 3400 
Q 4144 3584 4550 3584 
Q 5097 3584 5394 3201 
Q 5691 2819 5691 2113 
L 5691 0 
L 5113 0 
L 5113 2094 
Q 5113 2597 4934 2840 
Q 4756 3084 4391 3084 
Q 3944 3084 3684 2787 
Q 3425 2491 3425 1978 
L 3425 0 
L 2847 0 
L 2847 2094 
Q 2847 2600 2669 2842 
Q 2491 3084 2119 3084 
Q 1678 3084 1418 2786 
Q 1159 2488 1159 1978 
L 1159 0 
L 581 0 
L 581 3500 
L 1159 3500 
L 1159 2956 
Q 1356 3278 1631 3431 
Q 1906 3584 2284 3584 
Q 2666 3584 2933 3390 
Q 3200 3197 3328 2828 
z
" transform="scale(0.015625)"/>
       <path id="DejaVuSans-58" d="M 544 1381 
L 544 3500 
L 1119 3500 
L 1119 1403 
Q 1119 906 1312 657 
Q 1506 409 1894 409 
Q 2359 409 2629 706 
Q 2900 1003 2900 1516 
L 2900 3500 
L 3475 3500 
L 3475 0 
L 2900 0 
L 2900 538 
Q 2691 219 2414 64 
Q 2138 -91 1772 -91 
Q 1169 -91 856 284 
Q 544 659 544 1381 
z
M 1991 3584 
L 1991 3584 
z
" transform="scale(0.015625)"/>
       <path id="DejaVuSans-4f" d="M 603 4863 
L 1178 4863 
L 1178 0 
L 603 0 
L 603 4863 
z
" transform="scale(0.015625)"/>
       <path id="DejaVuSans-44" d="M 2194 1759 
Q 1497 1759 1228 1600 
Q 959 1441 959 1056 
Q 959 750 1161 570 
Q 1363 391 1709 391 
Q 2188 391 2477 730 
Q 2766 1069 2766 1631 
L 2766 1759 
L 2194 1759 
z
M 3341 1997 
L 3341 0 
L 2766 0 
L 2766 531 
Q 2569 213 2275 61 
Q 1981 -91 1556 -91 
Q 1019 -91 701 211 
Q 384 513 384 1019 
Q 384 1609 779 1909 
Q 1175 2209 1959 2209 
L 2766 2209 
L 2766 2266 
Q 2766 2663 2505 2880 
Q 2244 3097 1772 3097 
Q 1472 3097 1187 3025 
Q 903 2953 641 2809 
L 641 3341 
Q 956 3463 1253 3523 
Q 1550 3584 1831 3584 
Q 2591 3584 2966 3190 
Q 3341 2797 3341 1997 
z
" transform="scale(0.015625)"/>
       <path id="DejaVuSans-57" d="M 1172 4494 
L 1172 3500 
L 2356 3500 
L 2356 3053 
L 1172 3053 
L 1172 1153 
Q 1172 725 1289 603 
Q 1406 481 1766 481 
L 2356 481 
L 2356 0 
L 1766 0 
Q 1100 0 847 248 
Q 594 497 594 1153 
L 594 3053 
L 172 3053 
L 172 3500 
L 594 3500 
L 594 4494 
L 1172 4494 
z
" transform="scale(0.015625)"/>
       <path id="DejaVuSans-52" d="M 1959 3097 
Q 1497 3097 1228 2736 
Q 959 2375 959 1747 
Q 959 1119 1226 758 
Q 1494 397 1959 397 
Q 2419 397 2687 759 
Q 2956 1122 2956 1747 
Q 2956 2369 2687 2733 
Q 2419 3097 1959 3097 
z
M 1959 3584 
Q 2709 3584 3137 3096 
Q 3566 2609 3566 1747 
Q 3566 888 3137 398 
Q 2709 -91 1959 -91 
Q 1206 -91 779 398 
Q 353 888 353 1747 
Q 353 2609 779 3096 
Q 1206 3584 1959 3584 
z
" transform="scale(0.015625)"/>
       <path id="DejaVuSans-51" d="M 3513 2113 
L 3513 0 
L 2938 0 
L 2938 2094 
Q 2938 2591 2744 2837 
Q 2550 3084 2163 3084 
Q 1697 3084 1428 2787 
Q 1159 2491 1159 1978 
L 1159 0 
L 581 0 
L 581 3500 
L 1159 3500 
L 1159 2956 
Q 1366 3272 1645 3428 
Q 1925 3584 2291 3584 
Q 2894 3584 3203 3211 
Q 3513 2838 3513 2113 
z
" transform="scale(0.015625)"/>
       <path id="DejaVuSans-3" transform="scale(0.015625)"/>
       <path id="DejaVuSans-47" d="M 2906 2969 
L 2906 4863 
L 3481 4863 
L 3481 0 
L 2906 0 
L 2906 525 
Q 2725 213 2448 61 
Q 2172 -91 1784 -91 
Q 1150 -91 751 415 
Q 353 922 353 1747 
Q 353 2572 751 3078 
Q 1150 3584 1784 3584 
Q 2172 3584 2448 3432 
Q 2725 3281 2906 2969 
z
M 947 1747 
Q 947 1113 1208 752 
Q 1469 391 1925 391 
Q 2381 391 2643 752 
Q 2906 1113 2906 1747 
Q 2906 2381 2643 2742 
Q 2381 3103 1925 3103 
Q 1469 3103 1208 2742 
Q 947 2381 947 1747 
z
" transform="scale(0.015625)"/>
       <path id="DejaVuSans-5c" d="M 2059 -325 
Q 1816 -950 1584 -1140 
Q 1353 -1331 966 -1331 
L 506 -1331 
L 506 -850 
L 844 -850 
Q 1081 -850 1212 -737 
Q 1344 -625 1503 -206 
L 1606 56 
L 191 3500 
L 800 3500 
L 1894 763 
L 2988 3500 
L 3597 3500 
L 2059 -325 
z
" transform="scale(0.015625)"/>
       <path id="DejaVuSans-af6" d="M 313 1978 
L 6088 1978 
L 6088 1528 
L 313 1528 
L 313 1978 
z
" transform="scale(0.015625)"/>
       <path id="DejaVuSans-2d" d="M 628 4666 
L 1259 4666 
L 1259 325 
Q 1259 -519 939 -900 
Q 619 -1281 -91 -1281 
L -331 -1281 
L -331 -750 
L -134 -750 
Q 284 -750 456 -515 
Q 628 -281 628 325 
L 628 4666 
z
" transform="scale(0.015625)"/>
       <path id="DejaVuSans-56" d="M 2834 3397 
L 2834 2853 
Q 2591 2978 2328 3040 
Q 2066 3103 1784 3103 
Q 1356 3103 1142 2972 
Q 928 2841 928 2578 
Q 928 2378 1081 2264 
Q 1234 2150 1697 2047 
L 1894 2003 
Q 2506 1872 2764 1633 
Q 3022 1394 3022 966 
Q 3022 478 2636 193 
Q 2250 -91 1575 -91 
Q 1294 -91 989 -36 
Q 684 19 347 128 
L 347 722 
Q 666 556 975 473 
Q 1284 391 1588 391 
Q 1994 391 2212 530 
Q 2431 669 2431 922 
Q 2431 1156 2273 1281 
Q 2116 1406 1581 1522 
L 1381 1569 
Q 847 1681 609 1914 
Q 372 2147 372 2553 
Q 372 3047 722 3315 
Q 1072 3584 1716 3584 
Q 2034 3584 2315 3537 
Q 2597 3491 2834 3397 
z
" transform="scale(0.015625)"/>
       <path id="DejaVuSans-55" d="M 2631 2963 
Q 2534 3019 2420 3045 
Q 2306 3072 2169 3072 
Q 1681 3072 1420 2755 
Q 1159 2438 1159 1844 
L 1159 0 
L 581 0 
L 581 3500 
L 1159 3500 
L 1159 2956 
Q 1341 3275 1631 3429 
Q 1922 3584 2338 3584 
Q 2397 3584 2469 3576 
Q 2541 3569 2628 3553 
L 2631 2963 
z
" transform="scale(0.015625)"/>
      </defs>
      <use xlink:href="#DejaVuSans-36"/>
      <use xlink:href="#DejaVuSans-4c" transform="translate(63.484375 0)"/>
      <use xlink:href="#DejaVuSans-50" transform="translate(91.265625 0)"/>
      <use xlink:href="#DejaVuSans-58" transform="translate(188.671875 0)"/>
      <use xlink:href="#DejaVuSans-4f" transform="translate(252.046875 0)"/>
      <use xlink:href="#DejaVuSans-44" transform="translate(279.828125 0)"/>
      <use xlink:href="#DejaVuSans-57" transform="translate(341.109375 0)"/>
      <use xlink:href="#DejaVuSans-4c" transform="translate(380.3125 0)"/>
      <use xlink:href="#DejaVuSans-52" transform="translate(408.09375 0)"/>
      <use xlink:href="#DejaVuSans-51" transform="translate(469.28125 0)"/>
      <use xlink:href="#DejaVuSans-3" transform="translate(532.65625 0)"/>
      <use xlink:href="#DejaVuSans-47" transform="translate(564.4375 0)"/>
      <use xlink:href="#DejaVuSans-44" transform="translate(627.921875 0)"/>
      <use xlink:href="#DejaVuSans-5c" transform="translate(689.203125 0)"/>
      <use xlink:href="#DejaVuSans-3" transform="translate(748.390625 0)"/>
      <use xlink:href="#DejaVuSans-af6" transform="translate(780.171875 0)"/>
      <use xlink:href="#DejaVuSans-3" transform="translate(880.171875 0)"/>
      <use xlink:href="#DejaVuSans-2d" transform="translate(911.953125 0)"/>
      <use xlink:href="#DejaVuSans-58" transform="translate(941.453125 0)"/>
      <use xlink:href="#DejaVuSans-4f" transform="translate(1004.828125 0)"/>
      <use xlink:href="#DejaVuSans-5c" transform="translate(1032.609375 0)"/>
      <use xlink:href="#DejaVuSans-3" transform="translate(1091.796875 0)"/>
      <use xlink:href="#DejaVuSans-15" transform="translate(1123.578125 0)"/>
      <use xlink:href="#DejaVuSans-19" transform="translate(1187.203125 0)"/>
      <use xlink:href="#DejaVuSans-3" transform="translate(1250.828125 0)"/>
      <use xlink:href="#DejaVuSans-56" transform="translate(1282.609375 0)"/>
      <use xlink:href="#DejaVuSans-57" transform="translate(1334.703125 0)"/>
      <use xlink:href="#DejaVuSans-44" transform="translate(1373.90625 0)"/>
      <use xlink:href="#DejaVuSans-55" transform="translate(1435.1875 0)"/>
      <use xlink:href="#DejaVuSans-57" transform="translate(1476.296875 0)"/>
     </g>
    </g>
   </g>
   <g id="matplotlib.axis_2">
    <g id="ytick_1">
     <g id="line2d_21">
      <path d="M 45.99649 326.359234 
L 857.500385 326.359234 
" clip-path="url(#p8870170966)" style="fill: none; stroke: #b0b0b0; stroke-opacity: 0.18; stroke-width: 0.8; stroke-linecap: square"/>
     </g>
     <g id="line2d_22">
      <defs>
       <path id="mb82169aad6" d="M 0 0 
L -3.5 0 
" style="stroke: #000000; stroke-width: 0.8"/>
      </defs>
      <g>
       <use xlink:href="#mb82169aad6" x="45.99649" y="326.359234" style="stroke: #000000; stroke-width: 0.8"/>
      </g>
     </g>
     <g id="text_12">
      <!-- 70 -->
      <g transform="translate(24.99899 330.537945) scale(0.11 -0.11)">
       <use xlink:href="#DejaVuSans-1a"/>
       <use xlink:href="#DejaVuSans-13" transform="translate(63.625 0)"/>
      </g>
     </g>
    </g>
    <g id="ytick_2">
     <g id="line2d_23">
      <path d="M 45.99649 278.234679 
L 857.500385 278.234679 
" clip-path="url(#p8870170966)" style="fill: none; stroke: #b0b0b0; stroke-opacity: 0.18; stroke-width: 0.8; stroke-linecap: square"/>
     </g>
     <g id="line2d_24">
      <g>
       <use xlink:href="#mb82169aad6" x="45.99649" y="278.234679" style="stroke: #000000; stroke-width: 0.8"/>
      </g>
     </g>
     <g id="text_13">
      <!-- 75 -->
      <g transform="translate(24.99899 282.41339) scale(0.11 -0.11)">
       <use xlink:href="#DejaVuSans-1a"/>
       <use xlink:href="#DejaVuSans-18" transform="translate(63.625 0)"/>
      </g>
     </g>
    </g>
    <g id="ytick_3">
     <g id="line2d_25">
      <path d="M 45.99649 230.110125 
L 857.500385 230.110125 
" clip-path="url(#p8870170966)" style="fill: none; stroke: #b0b0b0; stroke-opacity: 0.18; stroke-width: 0.8; stroke-linecap: square"/>
     </g>
     <g id="line2d_26">
      <g>
       <use xlink:href="#mb82169aad6" x="45.99649" y="230.110125" style="stroke: #000000; stroke-width: 0.8"/>
      </g>
     </g>
     <g id="text_14">
      <!-- 80 -->
      <g transform="translate(24.99899 234.288836) scale(0.11 -0.11)">
       <use xlink:href="#DejaVuSans-1b"/>
       <use xlink:href="#DejaVuSans-13" transform="translate(63.625 0)"/>
      </g>
     </g>
    </g>
    <g id="ytick_4">
     <g id="line2d_27">
      <path d="M 45.99649 181.985571 
L 857.500385 181.985571 
" clip-path="url(#p8870170966)" style="fill: none; stroke: #b0b0b0; stroke-opacity: 0.18; stroke-width: 0.8; stroke-linecap: square"/>
     </g>
     <g id="line2d_28">
      <g>
       <use xlink:href="#mb82169aad6" x="45.99649" y="181.985571" style="stroke: #000000; stroke-width: 0.8"/>
      </g>
     </g>
     <g id="text_15">
      <!-- 85 -->
      <g transform="translate(24.99899 186.164282) scale(0.11 -0.11)">
       <use xlink:href="#DejaVuSans-1b"/>
       <use xlink:href="#DejaVuSans-18" transform="translate(63.625 0)"/>
      </g>
     </g>
    </g>
    <g id="ytick_5">
     <g id="line2d_29">
      <path d="M 45.99649 133.861016 
L 857.500385 133.861016 
" clip-path="url(#p8870170966)" style="fill: none; stroke: #b0b0b0; stroke-opacity: 0.18; stroke-width: 0.8; stroke-linecap: square"/>
     </g>
     <g id="line2d_30">
      <g>
       <use xlink:href="#mb82169aad6" x="45.99649" y="133.861016" style="stroke: #000000; stroke-width: 0.8"/>
      </g>
     </g>
     <g id="text_16">
      <!-- 90 -->
      <g transform="translate(24.99899 138.039727) scale(0.11 -0.11)">
       <use xlink:href="#DejaVuSans-1c"/>
       <use xlink:href="#DejaVuSans-13" transform="translate(63.625 0)"/>
      </g>
     </g>
    </g>
    <g id="ytick_6">
     <g id="line2d_31">
      <path d="M 45.99649 85.736462 
L 857.500385 85.736462 
" clip-path="url(#p8870170966)" style="fill: none; stroke: #b0b0b0; stroke-opacity: 0.18; stroke-width: 0.8; stroke-linecap: square"/>
     </g>
     <g id="line2d_32">
      <g>
       <use xlink:href="#mb82169aad6" x="45.99649" y="85.736462" style="stroke: #000000; stroke-width: 0.8"/>
      </g>
     </g>
     <g id="text_17">
      <!-- 95 -->
      <g transform="translate(24.99899 89.915173) scale(0.11 -0.11)">
       <use xlink:href="#DejaVuSans-1c"/>
       <use xlink:href="#DejaVuSans-18" transform="translate(63.625 0)"/>
      </g>
     </g>
    </g>
    <g id="ytick_7">
     <g id="line2d_33">
      <path d="M 45.99649 37.611908 
L 857.500385 37.611908 
" clip-path="url(#p8870170966)" style="fill: none; stroke: #b0b0b0; stroke-opacity: 0.18; stroke-width: 0.8; stroke-linecap: square"/>
     </g>
     <g id="line2d_34">
      <g>
       <use xlink:href="#mb82169aad6" x="45.99649" y="37.611908" style="stroke: #000000; stroke-width: 0.8"/>
      </g>
     </g>
     <g id="text_18">
      <!-- 100 -->
      <g transform="translate(18.00024 41.790619) scale(0.11 -0.11)">
       <use xlink:href="#DejaVuSans-14"/>
       <use xlink:href="#DejaVuSans-13" transform="translate(63.625 0)"/>
       <use xlink:href="#DejaVuSans-13" transform="translate(127.25 0)"/>
      </g>
     </g>
    </g>
    <g id="text_19">
     <!-- °F -->
     <g transform="translate(11.357662 196.008663) rotate(-90) scale(0.11 -0.11)">
      <defs>
       <path id="DejaVuSans-72" d="M 1600 4347 
Q 1350 4347 1178 4173 
Q 1006 4000 1006 3750 
Q 1006 3503 1178 3333 
Q 1350 3163 1600 3163 
Q 1850 3163 2022 3333 
Q 2194 3503 2194 3750 
Q 2194 3997 2020 4172 
Q 1847 4347 1600 4347 
z
M 1600 4750 
Q 1800 4750 1984 4673 
Q 2169 4597 2303 4453 
Q 2447 4313 2519 4134 
Q 2591 3956 2591 3750 
Q 2591 3338 2302 3052 
Q 2013 2766 1594 2766 
Q 1172 2766 890 3047 
Q 609 3328 609 3750 
Q 609 4169 896 4459 
Q 1184 4750 1600 4750 
z
" transform="scale(0.015625)"/>
       <path id="DejaVuSans-29" d="M 628 4666 
L 3309 4666 
L 3309 4134 
L 1259 4134 
L 1259 2759 
L 3109 2759 
L 3109 2228 
L 1259 2228 
L 1259 0 
L 628 0 
L 628 4666 
z
" transform="scale(0.015625)"/>
      </defs>
      <use xlink:href="#DejaVuSans-72"/>
      <use xlink:href="#DejaVuSans-29" transform="translate(50 0)"/>
     </g>
    </g>
   </g>
   <g id="line2d_35">
    <path d="M 45.99649 345.609055 
L 444.234513 345.609055 
L 447.991475 345.455361 
L 474.290212 342.426701 
L 481.804137 342.167084 
L 489.318062 342.178326 
L 500.58895 342.506586 
L 526.887687 343.631107 
L 538.158574 344.008374 
L 568.214274 345.55878 
L 579.485162 345.609055 
L 624.568711 345.573178 
L 632.082636 344.787848 
L 643.353524 343.380328 
L 647.110486 342.764841 
L 650.867449 341.980884 
L 654.624411 341.324485 
L 662.138336 340.723294 
L 669.652261 340.667746 
L 677.166186 340.899764 
L 684.680111 341.32222 
L 692.194036 342.13744 
L 703.464923 343.402246 
L 707.221886 343.531663 
L 710.978848 343.45684 
L 729.763661 342.136762 
L 737.277586 341.29697 
L 741.034548 340.692982 
L 744.791511 340.239985 
L 748.548473 340.094988 
L 752.305436 340.079773 
L 756.062398 340.244053 
L 759.819361 340.603049 
L 763.576323 341.144878 
L 767.333286 341.857326 
L 771.090248 342.739137 
L 774.847211 343.798304 
L 778.604173 345.003052 
L 782.361135 345.608675 
L 853.743423 345.609055 
L 853.743423 345.609055 
" clip-path="url(#p8870170966)" style="fill: none; stroke: #64748b; stroke-width: 2; stroke-linecap: square"/>
   </g>
   <g id="line2d_36">
    <path d="M 45.99649 282.849607 
L 49.753452 288.20372 
L 53.510415 298.753312 
L 57.267377 304.526144 
L 61.02434 291.499454 
L 64.781302 290.526165 
L 68.538265 289.027791 
L 72.295227 282.918189 
L 76.05219 280.606526 
L 79.809152 279.511868 
L 83.566115 278.081241 
L 87.323077 274.74813 
L 91.08004 270.089627 
L 94.837002 266.709741 
L 98.593965 263.999754 
L 102.350927 262.480341 
L 106.10789 263.007022 
L 113.621815 266.389278 
L 121.13574 269.572008 
L 124.892702 270.570057 
L 128.649664 271.149594 
L 132.406627 274.719915 
L 136.163589 290.905498 
L 139.920552 300.71298 
L 143.677514 297.959534 
L 147.434477 293.591127 
L 151.191439 284.148535 
L 154.948402 281.980098 
L 158.705364 278.683942 
L 162.462327 279.30786 
L 166.219289 268.63203 
L 169.976252 259.76349 
L 173.733214 255.051713 
L 181.247139 248.519685 
L 185.004102 243.675475 
L 188.761064 238.523909 
L 192.518027 232.78363 
L 196.274989 226.078595 
L 200.031952 221.205743 
L 203.788914 221.476518 
L 207.545877 227.111567 
L 211.302839 231.190412 
L 215.059801 233.874318 
L 218.816764 235.808544 
L 222.573726 240.118921 
L 226.330689 250.280474 
L 230.087651 256.695473 
L 233.844614 260.960632 
L 237.601576 267.938421 
L 241.358539 273.490571 
L 245.115501 275.447752 
L 252.629426 246.436997 
L 256.386389 237.654199 
L 260.143351 231.474123 
L 263.900314 227.043611 
L 267.657276 224.439158 
L 271.414239 221.420815 
L 275.171201 216.719904 
L 282.685126 205.856271 
L 286.442089 202.30849 
L 290.199051 202.130158 
L 293.956013 205.561474 
L 297.712976 209.571888 
L 301.469938 212.369382 
L 308.983863 217.120594 
L 312.740826 225.044313 
L 316.497788 238.167129 
L 320.254751 246.528707 
L 324.011713 253.530689 
L 327.768676 259.450763 
L 331.525638 262.82649 
L 335.282601 254.278021 
L 339.039563 241.080027 
L 342.796526 233.758524 
L 346.553488 228.700779 
L 350.310451 224.951058 
L 354.067413 218.918016 
L 357.824376 214.688208 
L 365.338301 205.406067 
L 369.095263 201.957205 
L 372.852225 199.46221 
L 376.609188 199.540384 
L 380.36615 200.167959 
L 384.123113 201.544845 
L 387.880075 204.914848 
L 391.637038 207.519954 
L 395.394 209.46441 
L 399.150963 211.253328 
L 406.664888 214.202669 
L 410.42185 215.449897 
L 417.935775 217.483667 
L 421.692738 218.419221 
L 425.4497 218.056771 
L 429.206663 213.676366 
L 432.963625 206.661159 
L 436.720588 199.081006 
L 440.47755 192.998996 
L 444.234513 188.785697 
L 447.991475 185.551358 
L 455.5054 178.501839 
L 459.262362 175.238364 
L 463.019325 173.148795 
L 466.776287 169.565621 
L 470.53325 167.326973 
L 474.290212 170.455906 
L 478.047175 174.602237 
L 481.804137 177.301247 
L 485.5611 179.571424 
L 489.318062 181.652625 
L 496.831987 185.35858 
L 500.58895 186.94602 
L 504.345912 188.697835 
L 508.102875 190.299598 
L 511.859837 193.20471 
L 515.6168 192.876178 
L 519.373762 193.767156 
L 523.130725 209.7654 
L 526.887687 218.132457 
L 530.64465 215.742938 
L 534.401612 212.216916 
L 538.158574 214.118602 
L 541.915537 214.533943 
L 545.672499 209.195618 
L 549.429462 212.657123 
L 553.186424 217.07862 
L 556.943387 211.9759 
L 560.700349 203.973127 
L 564.457312 202.561826 
L 568.214274 202.642668 
L 571.971237 202.983826 
L 579.485162 204.20647 
L 602.026937 207.360825 
L 605.783899 207.427782 
L 609.540862 206.532617 
L 613.297824 204.893203 
L 617.054786 198.392985 
L 620.811749 190.820378 
L 624.568711 186.094528 
L 628.325674 183.02098 
L 632.082636 179.733154 
L 635.839599 175.477345 
L 639.596561 169.847717 
L 643.353524 163.327156 
L 647.110486 158.176521 
L 650.867449 155.762117 
L 654.624411 158.004533 
L 658.381374 163.215012 
L 662.138336 166.287512 
L 665.895299 169.029993 
L 673.409224 174.162028 
L 677.166186 185.609546 
L 680.923149 196.567569 
L 684.680111 212.393208 
L 688.437074 225.578149 
L 692.194036 236.667045 
L 695.950998 241.453906 
L 699.707961 231.301987 
L 703.464923 207.326316 
L 707.221886 191.18071 
L 710.978848 184.542168 
L 714.735811 179.68864 
L 718.492773 176.659563 
L 722.249736 174.38565 
L 726.006698 170.757481 
L 729.763661 165.838926 
L 733.520623 160.581266 
L 737.277586 157.12192 
L 741.034548 155.759927 
L 744.791511 159.495441 
L 748.548473 183.938448 
L 752.305436 201.4192 
L 756.062398 217.305917 
L 763.576323 250.535635 
L 767.333286 265.0506 
L 771.090248 280.509254 
L 774.847211 293.411094 
L 778.604173 303.611834 
L 782.361135 312.945809 
L 786.118098 318.544405 
L 789.87506 303.085056 
L 793.632023 287.057065 
L 797.388985 266.364466 
L 801.145948 258.984859 
L 842.472535 258.984858 
L 846.229498 263.324329 
L 849.98646 271.524859 
L 853.743423 275.317514 
L 853.743423 275.317514 
" clip-path="url(#p8870170966)" style="fill: none; stroke: #087e8b; stroke-width: 2; stroke-linecap: square"/>
   </g>
   <g id="line2d_37">
    <path d="M 45.99649 281.224329 
L 49.753452 287.519054 
L 53.510415 296.491494 
L 57.267377 301.518617 
L 61.02434 291.027841 
L 64.781302 288.148009 
L 68.538265 287.689026 
L 72.295227 281.99776 
L 76.05219 279.60372 
L 79.809152 278.43179 
L 83.566115 276.999757 
L 87.323077 273.904507 
L 91.08004 269.441859 
L 94.837002 265.883473 
L 98.593965 263.05612 
L 102.350927 261.332065 
L 106.10789 261.594942 
L 109.864852 263.115282 
L 121.13574 268.024932 
L 124.892702 269.07246 
L 128.649664 269.72835 
L 132.406627 274.61296 
L 136.163589 290.369277 
L 139.920552 296.447578 
L 143.677514 296.032317 
L 147.434477 288.524965 
L 151.191439 282.772315 
L 154.948402 280.870133 
L 158.705364 277.209248 
L 162.462327 277.322487 
L 166.219289 266.554372 
L 169.976252 258.728682 
L 173.733214 254.367584 
L 177.490177 251.502435 
L 181.247139 248.294881 
L 185.004102 243.689343 
L 188.761064 238.463592 
L 192.518027 232.916049 
L 196.274989 226.67713 
L 200.031952 221.681825 
L 203.788914 220.92625 
L 207.545877 225.131696 
L 211.302839 229.15161 
L 215.059801 231.849464 
L 218.816764 233.755263 
L 222.573726 239.398929 
L 226.330689 248.559804 
L 233.844614 259.606175 
L 237.601576 265.007672 
L 241.358539 271.071868 
L 245.115501 272.558013 
L 248.872464 257.443794 
L 252.629426 244.992332 
L 256.386389 236.49866 
L 260.143351 230.207796 
L 263.900314 225.916096 
L 267.657276 223.500094 
L 271.414239 220.576677 
L 275.171201 216.131832 
L 282.685126 205.263996 
L 286.442089 201.608156 
L 290.199051 200.804083 
L 293.956013 203.319569 
L 297.712976 207.025206 
L 301.469938 209.842703 
L 305.226901 212.187368 
L 308.983863 215.787338 
L 312.740826 225.620232 
L 320.254751 243.163959 
L 324.011713 248.910023 
L 327.768676 255.874411 
L 331.525638 259.188306 
L 335.282601 254.424847 
L 339.039563 239.325285 
L 342.796526 232.176225 
L 346.553488 227.183443 
L 350.310451 223.381598 
L 354.067413 217.721585 
L 357.824376 213.66582 
L 365.338301 204.485586 
L 369.095263 200.729552 
L 372.852225 198.06941 
L 376.609188 197.662565 
L 380.36615 198.20028 
L 384.123113 199.342285 
L 387.880075 202.286337 
L 391.637038 204.906698 
L 395.394 206.860125 
L 399.150963 208.634669 
L 406.664888 211.555876 
L 410.42185 212.810224 
L 417.935775 214.856766 
L 421.692738 215.791323 
L 425.4497 215.590409 
L 429.206663 211.539074 
L 432.963625 204.709462 
L 436.720588 197.28027 
L 440.47755 191.194865 
L 444.234513 187.131852 
L 447.991475 184.152367 
L 459.262362 173.627914 
L 463.019325 171.344847 
L 466.776287 168.18422 
L 470.53325 165.792362 
L 474.290212 167.886967 
L 478.047175 171.663525 
L 481.804137 174.375377 
L 485.5611 176.638254 
L 489.318062 178.67945 
L 496.831987 182.327456 
L 500.58895 183.882631 
L 504.345912 185.61097 
L 511.859837 191.544992 
L 515.6168 189.878924 
L 519.373762 192.995419 
L 523.130725 208.038692 
L 526.887687 214.00156 
L 530.64465 211.684273 
L 534.401612 209.691041 
L 541.915537 211.394708 
L 545.672499 207.316515 
L 549.429462 209.267543 
L 553.186424 214.770591 
L 556.943387 209.923003 
L 560.700349 202.544348 
L 564.457312 199.766303 
L 568.214274 199.832546 
L 571.971237 200.222505 
L 579.485162 201.487482 
L 602.026937 204.748681 
L 605.783899 204.883148 
L 609.540862 204.078822 
L 613.297824 202.484902 
L 617.054786 196.404101 
L 620.811749 188.89884 
L 624.568711 184.317794 
L 628.325674 181.322994 
L 632.082636 178.05143 
L 635.839599 173.936707 
L 639.596561 168.565923 
L 643.353524 162.363414 
L 647.110486 157.300363 
L 650.867449 154.523953 
L 654.624411 155.677653 
L 658.381374 159.943362 
L 662.138336 163.024134 
L 665.895299 165.739835 
L 669.652261 168.277968 
L 673.409224 172.185466 
L 677.166186 183.632351 
L 680.923149 194.184325 
L 684.680111 209.239652 
L 688.437074 223.665559 
L 692.194036 234.962602 
L 695.950998 240.34367 
L 699.707961 228.767159 
L 703.464923 204.029539 
L 707.221886 189.009998 
L 710.978848 182.276788 
L 714.735811 177.597711 
L 718.492773 174.724569 
L 722.249736 172.372318 
L 726.006698 168.860448 
L 729.763661 164.014602 
L 733.520623 158.971573 
L 737.277586 155.436027 
L 741.034548 153.731093 
L 744.791511 160.738161 
L 752.305436 199.495356 
L 759.819361 231.412776 
L 763.576323 248.571979 
L 767.333286 263.614083 
L 771.090248 277.33878 
L 774.847211 290.45176 
L 782.361135 309.852995 
L 786.118098 315.358156 
L 793.632023 284.979801 
L 797.388985 264.708854 
L 801.145948 258.984858 
L 842.472535 258.984858 
L 846.229498 261.751926 
L 849.98646 267.216255 
L 853.743423 271.334899 
L 853.743423 271.334899 
" clip-path="url(#p8870170966)" style="fill: none; stroke: #d18b18; stroke-width: 2; stroke-linecap: square"/>
   </g>
   <g id="line2d_38">
    <path d="M 45.99649 281.304822 
L 49.753452 288.15359 
L 53.510415 294.321931 
L 57.267377 299.846322 
L 61.02434 291.047067 
L 64.781302 288.36436 
L 68.538265 287.011981 
L 72.295227 281.944738 
L 76.05219 279.669248 
L 79.809152 278.561745 
L 83.566115 277.097099 
L 87.323077 273.82478 
L 91.08004 269.294769 
L 94.837002 265.63269 
L 98.593965 262.698606 
L 102.350927 261.083864 
L 106.10789 261.510073 
L 109.864852 262.997892 
L 121.13574 268.27319 
L 124.892702 269.276792 
L 128.649664 270.021925 
L 132.406627 275.243483 
L 136.163589 290.001262 
L 139.920552 296.610083 
L 143.677514 295.416467 
L 147.434477 287.053035 
L 151.191439 283.351867 
L 154.948402 281.079551 
L 158.705364 277.082916 
L 162.462327 278.817242 
L 166.219289 265.391853 
L 169.976252 258.428671 
L 173.733214 253.668598 
L 181.247139 247.268179 
L 185.004102 243.25066 
L 188.761064 238.893411 
L 192.518027 233.946149 
L 196.274989 228.038674 
L 200.031952 222.800675 
L 203.788914 221.458365 
L 207.545877 225.098386 
L 211.302839 229.143024 
L 215.059801 231.989323 
L 218.816764 233.99391 
L 222.573726 239.971327 
L 226.330689 247.981202 
L 230.087651 252.38947 
L 233.844614 258.511086 
L 237.601576 263.629901 
L 241.358539 269.922526 
L 245.115501 271.011412 
L 248.872464 259.484597 
L 252.629426 245.09985 
L 256.386389 236.50684 
L 260.143351 229.808634 
L 263.900314 225.185977 
L 267.657276 222.554125 
L 271.414239 219.581603 
L 275.171201 215.655593 
L 282.685126 205.941849 
L 286.442089 202.447009 
L 290.199051 201.236835 
L 293.956013 203.247942 
L 297.712976 206.737446 
L 301.469938 209.60159 
L 308.983863 214.771396 
L 312.740826 225.319692 
L 316.497788 232.500294 
L 320.254751 243.259624 
L 327.768676 257.60684 
L 331.525638 257.510811 
L 335.282601 252.715204 
L 339.039563 239.706536 
L 342.796526 232.07645 
L 346.553488 226.873293 
L 350.310451 222.714771 
L 354.067413 216.663083 
L 357.824376 212.412318 
L 361.581338 207.685357 
L 365.338301 203.278552 
L 369.095263 199.964169 
L 372.852225 197.49603 
L 376.609188 196.850535 
L 380.36615 197.349897 
L 384.123113 198.628218 
L 387.880075 201.614982 
L 391.637038 204.279466 
L 395.394 206.373967 
L 399.150963 208.286689 
L 406.664888 211.443756 
L 410.42185 212.725113 
L 417.935775 214.732073 
L 421.692738 215.685638 
L 425.4497 215.106617 
L 429.206663 210.738735 
L 432.963625 204.101075 
L 436.720588 196.509309 
L 440.47755 190.082685 
L 444.234513 185.666938 
L 447.991475 182.36248 
L 451.748438 178.77284 
L 455.5054 175.396074 
L 459.262362 172.289294 
L 463.019325 170.128043 
L 466.776287 167.404455 
L 470.53325 165.031972 
L 474.290212 166.743267 
L 478.047175 170.439334 
L 481.804137 173.2798 
L 485.5611 175.712208 
L 493.075025 179.95745 
L 496.831987 181.866309 
L 504.345912 185.440835 
L 511.859837 191.678368 
L 515.6168 189.759229 
L 519.373762 193.051884 
L 523.130725 208.149723 
L 526.887687 214.361958 
L 530.64465 210.320586 
L 534.401612 209.231113 
L 538.158574 208.670992 
L 541.915537 209.819814 
L 545.672499 207.246781 
L 549.429462 208.904127 
L 553.186424 212.837972 
L 556.943387 209.320322 
L 560.700349 202.409247 
L 564.457312 199.189871 
L 568.214274 199.076238 
L 571.971237 199.463537 
L 579.485162 200.706611 
L 602.026937 203.847215 
L 605.783899 203.911804 
L 609.540862 203.079846 
L 613.297824 201.453832 
L 617.054786 195.098959 
L 620.811749 187.5049 
L 624.568711 182.617553 
L 628.325674 179.433315 
L 632.082636 176.071674 
L 635.839599 172.270711 
L 639.596561 167.647386 
L 643.353524 162.152726 
L 647.110486 157.374707 
L 650.867449 154.349386 
L 654.624411 155.036557 
L 658.381374 158.76483 
L 665.895299 164.817594 
L 669.652261 167.606614 
L 673.409224 171.920348 
L 677.166186 182.97153 
L 680.923149 193.409605 
L 688.437074 224.308628 
L 692.194036 236.243252 
L 695.950998 241.990065 
L 699.707961 227.624797 
L 703.464923 203.522408 
L 707.221886 188.860413 
L 710.978848 181.599216 
L 714.735811 176.388579 
L 718.492773 173.356486 
L 722.249736 171.031484 
L 726.006698 167.972915 
L 729.763661 163.897126 
L 733.520623 159.464655 
L 737.277586 155.990856 
L 741.034548 154.004888 
L 744.791511 160.897014 
L 748.548473 180.710748 
L 752.305436 198.595272 
L 756.062398 214.212922 
L 759.819361 230.337223 
L 767.333286 260.789522 
L 774.847211 286.967111 
L 782.361135 306.503722 
L 786.118098 312.052718 
L 789.87506 299.322256 
L 793.632023 284.665236 
L 797.388985 263.816653 
L 801.145948 258.984859 
L 842.472535 258.984858 
L 846.229498 261.300411 
L 849.98646 269.249 
L 853.743423 269.971069 
L 853.743423 269.971069 
" clip-path="url(#p8870170966)" style="fill: none; stroke: #a44a62; stroke-width: 2; stroke-linecap: square"/>
   </g>
   <g id="line2d_39">
    <path d="M 45.99649 280.086432 
L 49.753452 287.146019 
L 53.510415 292.287691 
L 57.267377 298.982481 
L 61.02434 288.760353 
L 64.781302 287.358494 
L 68.538265 286.426446 
L 72.295227 281.25823 
L 76.05219 279.149052 
L 79.809152 278.044245 
L 83.566115 276.613692 
L 87.323077 273.597715 
L 91.08004 269.409064 
L 94.837002 265.827832 
L 98.593965 262.927267 
L 102.350927 261.218079 
L 106.10789 261.364804 
L 109.864852 262.77714 
L 121.13574 267.628136 
L 124.892702 268.61621 
L 128.649664 269.355303 
L 132.406627 272.843189 
L 136.163589 286.949331 
L 139.920552 294.494964 
L 143.677514 292.937399 
L 147.434477 286.607936 
L 151.191439 281.857892 
L 154.948402 280.309847 
L 158.705364 276.746114 
L 162.462327 276.332453 
L 166.219289 266.700505 
L 169.976252 259.851625 
L 173.733214 255.070955 
L 177.490177 251.680167 
L 181.247139 248.449821 
L 185.004102 243.908089 
L 188.761064 238.72562 
L 192.518027 233.197816 
L 196.274989 227.058724 
L 200.031952 222.305423 
L 203.788914 221.524594 
L 207.545877 225.428868 
L 211.302839 229.137841 
L 215.059801 231.717384 
L 218.816764 233.526165 
L 222.573726 237.958458 
L 226.330689 246.636176 
L 230.087651 251.613933 
L 233.844614 255.290176 
L 237.601576 261.983847 
L 241.358539 268.392103 
L 245.115501 269.651165 
L 248.872464 255.27795 
L 252.629426 245.338134 
L 256.386389 237.708983 
L 260.143351 231.280422 
L 263.900314 226.556438 
L 271.414239 220.718425 
L 275.171201 216.287917 
L 282.685126 205.462182 
L 286.442089 201.882645 
L 290.199051 201.067208 
L 293.956013 203.353734 
L 297.712976 206.776986 
L 301.469938 209.460852 
L 305.226901 211.775765 
L 308.983863 214.653559 
L 312.740826 222.672122 
L 316.497788 232.111763 
L 320.254751 240.183759 
L 324.011713 246.691179 
L 327.768676 252.411259 
L 331.525638 255.830656 
L 335.282601 250.46056 
L 339.039563 238.037523 
L 342.796526 231.683929 
L 346.553488 227.055114 
L 350.310451 223.173881 
L 354.067413 217.833511 
L 357.824376 213.517915 
L 365.338301 204.373708 
L 369.095263 200.63073 
L 372.852225 197.887758 
L 376.609188 197.424967 
L 380.36615 197.791455 
L 384.123113 198.979271 
L 387.880075 201.858541 
L 391.637038 204.338282 
L 395.394 206.281978 
L 399.150963 208.005878 
L 406.664888 210.86299 
L 410.42185 212.063921 
L 421.692738 215.001518 
L 425.4497 214.768874 
L 429.206663 211.280294 
L 432.963625 205.334125 
L 436.720588 198.327632 
L 440.47755 192.052172 
L 444.234513 187.537134 
L 451.748438 180.550379 
L 455.5054 176.883962 
L 459.262362 173.439442 
L 463.019325 171.105871 
L 466.776287 167.864055 
L 470.53325 165.660492 
L 474.290212 167.723938 
L 478.047175 171.200068 
L 481.804137 173.831403 
L 485.5611 176.102443 
L 489.318062 178.104854 
L 493.075025 179.951522 
L 496.831987 181.66262 
L 504.345912 184.893106 
L 508.102875 187.105734 
L 511.859837 189.99157 
L 515.6168 188.968566 
L 519.373762 192.19859 
L 523.130725 204.896815 
L 526.887687 211.751919 
L 530.64465 208.852709 
L 534.401612 206.132274 
L 538.158574 207.451636 
L 541.915537 208.411172 
L 545.672499 204.321552 
L 549.429462 207.221278 
L 553.186424 211.563216 
L 556.943387 207.235463 
L 560.700349 200.027406 
L 564.457312 198.534783 
L 568.214274 198.686417 
L 571.971237 199.155526 
L 579.485162 200.429106 
L 602.026937 203.643074 
L 605.783899 203.758165 
L 609.540862 203.021535 
L 613.297824 201.585265 
L 617.054786 196.207065 
L 620.811749 189.263829 
L 624.568711 184.385179 
L 632.082636 177.661359 
L 635.839599 173.544789 
L 639.596561 168.189378 
L 643.353524 162.130218 
L 647.110486 157.218599 
L 650.867449 154.542817 
L 654.624411 155.600787 
L 658.381374 159.429157 
L 665.895299 165.064524 
L 669.652261 167.558856 
L 673.409224 170.724917 
L 677.166186 182.638609 
L 680.923149 192.179387 
L 684.680111 203.18038 
L 688.437074 214.547201 
L 692.194036 223.825356 
L 695.950998 229.398227 
L 699.707961 223.296515 
L 703.464923 201.569597 
L 707.221886 189.492203 
L 710.978848 183.012206 
L 714.735811 177.769259 
L 718.492773 174.414992 
L 722.249736 172.076925 
L 726.006698 168.473027 
L 733.520623 158.724154 
L 737.277586 155.281987 
L 741.034548 153.604084 
L 744.791511 158.535947 
L 748.548473 177.087362 
L 752.305436 191.73672 
L 756.062398 203.982184 
L 759.819361 216.680288 
L 763.576323 230.088124 
L 767.333286 257.484722 
L 771.090248 259.820502 
L 774.847211 268.744854 
L 782.361135 288.029376 
L 786.118098 294.362224 
L 789.87506 287.858793 
L 793.632023 277.43525 
L 797.388985 262.597145 
L 801.145948 258.984858 
L 842.472535 258.984858 
L 846.229498 259.858906 
L 849.98646 265.084423 
L 853.743423 268.723038 
L 853.743423 268.723038 
" clip-path="url(#p8870170966)" style="fill: none; stroke: #5f5aa2; stroke-width: 2; stroke-linecap: square"/>
   </g>
   <g id="line2d_40">
    <path d="M 45.99649 303.596319 
L 49.753452 310.815003 
L 53.510415 318.466807 
L 57.267377 325.396743 
L 61.02434 310.093134 
L 64.781302 308.216277 
L 68.538265 299.986978 
L 72.295227 277.320313 
L 76.05219 274.43284 
L 79.809152 289.158953 
L 83.566115 297.099505 
L 87.323077 297.099505 
L 91.08004 292.046426 
L 94.837002 277.320313 
L 98.593965 263.316067 
L 102.350927 265.048551 
L 106.10789 269.379761 
L 109.864852 269.379761 
L 113.621815 274.43284 
L 117.378777 284.105875 
L 121.13574 288.437085 
L 124.892702 283.384007 
L 128.649664 285.838359 
L 132.406627 296.233263 
L 136.163589 312.69186 
L 139.920552 320.903865 
L 143.677514 319.12162 
L 147.434477 311.565815 
L 151.191439 306.466624 
L 154.948402 299.638085 
L 158.705364 298.588502 
L 162.462327 299.709405 
L 166.219289 286.109945 
L 173.733214 233.377613 
L 177.490177 217.201881 
L 181.247139 200.024742 
L 185.004102 194.696309 
L 188.761064 195.87561 
L 192.518027 193.457339 
L 196.274989 174.881833 
L 200.031952 165.992818 
L 203.788914 178.341024 
L 207.545877 201.099257 
L 211.302839 228.20465 
L 215.059801 243.199427 
L 218.816764 249.54937 
L 222.573726 260.970784 
L 226.330689 270.967659 
L 230.087651 276.364568 
L 233.844614 282.071005 
L 241.358539 294.993074 
L 245.115501 296.435299 
L 248.872464 277.111575 
L 252.629426 246.551315 
L 256.386389 226.844428 
L 260.143351 209.329227 
L 263.900314 205.411954 
L 267.657276 207.730267 
L 271.414239 199.681897 
L 275.171201 193.394927 
L 278.928164 180.351994 
L 282.685126 176.579248 
L 286.442089 184.098583 
L 293.956013 199.521406 
L 297.712976 201.362471 
L 301.469938 205.691365 
L 305.226901 221.459863 
L 308.983863 236.252423 
L 316.497788 257.281477 
L 320.254751 266.839693 
L 324.011713 274.702359 
L 327.768676 281.880623 
L 331.525638 284.043794 
L 335.282601 276.57242 
L 339.039563 259.755741 
L 342.796526 228.252409 
L 346.553488 211.081997 
L 350.310451 187.599522 
L 354.067413 170.510301 
L 357.824376 158.226647 
L 361.581338 137.033471 
L 365.338301 122.234774 
L 369.095263 128.701422 
L 376.609188 130.35789 
L 380.36615 133.777691 
L 384.123113 150.09053 
L 387.880075 172.655523 
L 391.637038 184.869985 
L 395.394 195.829731 
L 399.150963 205.968137 
L 402.907925 212.975467 
L 406.664888 220.316914 
L 410.42185 221.351498 
L 414.178813 219.400008 
L 417.935775 216.916973 
L 421.692738 220.110622 
L 425.4497 211.223141 
L 429.206663 186.067822 
L 436.720588 127.37873 
L 440.47755 109.870612 
L 444.234513 106.124732 
L 447.991475 94.91821 
L 451.748438 69.754261 
L 455.5054 52.433325 
L 459.262362 48.87472 
L 463.019325 48.972271 
L 466.776287 36.989216 
L 470.53325 34.581553 
L 478.047175 88.666216 
L 481.804137 108.054328 
L 485.5611 128.499422 
L 489.318062 144.659539 
L 493.075025 163.320094 
L 496.831987 174.230394 
L 500.58895 187.640786 
L 504.345912 198.931119 
L 508.102875 208.101179 
L 511.859837 209.808915 
L 515.6168 207.663422 
L 519.373762 214.513698 
L 523.130725 230.792589 
L 526.887687 239.608086 
L 530.64465 235.473683 
L 534.401612 232.826426 
L 541.915537 234.87946 
L 545.672499 229.905998 
L 549.429462 232.770688 
L 553.186424 238.275681 
L 556.943387 233.426937 
L 560.700349 219.234648 
L 564.457312 195.409626 
L 568.214274 173.356938 
L 571.971237 166.791614 
L 575.728199 166.184513 
L 579.485162 163.161467 
L 583.242124 160.465068 
L 586.999087 157.517299 
L 590.756049 154.895122 
L 594.513012 152.020495 
L 598.269974 149.470352 
L 602.026937 149.698473 
L 613.297824 154.91913 
L 617.054786 129.439059 
L 620.811749 105.723595 
L 624.568711 98.209461 
L 628.325674 96.5011 
L 632.082636 86.304854 
L 635.839599 79.603062 
L 639.596561 65.422639 
L 643.353524 49.826585 
L 647.110486 53.604001 
L 650.867449 65.059906 
L 654.624411 87.947289 
L 658.381374 96.278159 
L 662.138336 106.221624 
L 665.895299 133.224914 
L 669.652261 158.085572 
L 673.409224 185.42279 
L 677.166186 205.995878 
L 680.923149 217.638448 
L 684.680111 234.642703 
L 688.437074 250.944153 
L 692.194036 262.643906 
L 695.950998 268.586163 
L 699.707961 254.765862 
L 703.464923 222.337171 
L 707.221886 203.061469 
L 710.978848 190.729857 
L 714.735811 168.016657 
L 718.492773 169.281959 
L 722.249736 179.65443 
L 726.006698 177.044048 
L 729.763661 169.823632 
L 733.520623 167.954108 
L 741.034548 172.901229 
L 744.791511 181.44863 
L 748.548473 204.439002 
L 752.305436 224.546638 
L 756.062398 242.492532 
L 759.819361 258.99768 
L 763.576323 276.948681 
L 771.090248 308.216277 
L 774.847211 322.220522 
L 782.361135 341.277845 
L 786.118098 345.609055 
L 793.632023 311.10375 
L 797.388985 285.260864 
L 801.145948 263.316067 
L 804.90291 258.984858 
L 812.416835 258.984858 
L 816.173798 241.804392 
L 819.93076 229.53263 
L 823.687723 229.53263 
L 827.444685 224.479552 
L 831.201648 220.870211 
L 834.95861 243.103755 
L 838.715573 270.10163 
L 842.472535 278.042181 
L 846.229498 284.105875 
L 849.98646 293.490163 
L 853.743423 297.099505 
L 853.743423 297.099505 
" clip-path="url(#p8870170966)" style="fill: none; stroke: #222222; stroke-width: 2; stroke-linecap: square"/>
   </g>
   <g id="patch_4">
    <path d="M 45.99649 361.16043 
L 45.99649 19.030178 
" style="fill: none; stroke: #000000; stroke-width: 0.8; stroke-linejoin: miter; stroke-linecap: square"/>
   </g>
   <g id="patch_5">
    <path d="M 45.99649 361.16043 
L 857.500385 361.16043 
" style="fill: none; stroke: #000000; stroke-width: 0.8; stroke-linejoin: miter; stroke-linecap: square"/>
   </g>
   <g id="text_20">
    <!-- Dry-Bulb Air Temperature -->
    <g transform="translate(368.217188 13.030178) scale(0.132 -0.132)">
     <defs>
      <path id="DejaVuSans-27" d="M 1259 4147 
L 1259 519 
L 2022 519 
Q 2988 519 3436 956 
Q 3884 1394 3884 2338 
Q 3884 3275 3436 3711 
Q 2988 4147 2022 4147 
L 1259 4147 
z
M 628 4666 
L 1925 4666 
Q 3281 4666 3915 4102 
Q 4550 3538 4550 2338 
Q 4550 1131 3912 565 
Q 3275 0 1925 0 
L 628 0 
L 628 4666 
z
" transform="scale(0.015625)"/>
      <path id="DejaVuSans-10" d="M 313 2009 
L 1997 2009 
L 1997 1497 
L 313 1497 
L 313 2009 
z
" transform="scale(0.015625)"/>
      <path id="DejaVuSans-25" d="M 1259 2228 
L 1259 519 
L 2272 519 
Q 2781 519 3026 730 
Q 3272 941 3272 1375 
Q 3272 1813 3026 2020 
Q 2781 2228 2272 2228 
L 1259 2228 
z
M 1259 4147 
L 1259 2741 
L 2194 2741 
Q 2656 2741 2882 2914 
Q 3109 3088 3109 3444 
Q 3109 3797 2882 3972 
Q 2656 4147 2194 4147 
L 1259 4147 
z
M 628 4666 
L 2241 4666 
Q 2963 4666 3353 4366 
Q 3744 4066 3744 3513 
Q 3744 3084 3544 2831 
Q 3344 2578 2956 2516 
Q 3422 2416 3680 2098 
Q 3938 1781 3938 1306 
Q 3938 681 3513 340 
Q 3088 0 2303 0 
L 628 0 
L 628 4666 
z
" transform="scale(0.015625)"/>
      <path id="DejaVuSans-45" d="M 3116 1747 
Q 3116 2381 2855 2742 
Q 2594 3103 2138 3103 
Q 1681 3103 1420 2742 
Q 1159 2381 1159 1747 
Q 1159 1113 1420 752 
Q 1681 391 2138 391 
Q 2594 391 2855 752 
Q 3116 1113 3116 1747 
z
M 1159 2969 
Q 1341 3281 1617 3432 
Q 1894 3584 2278 3584 
Q 2916 3584 3314 3078 
Q 3713 2572 3713 1747 
Q 3713 922 3314 415 
Q 2916 -91 2278 -91 
Q 1894 -91 1617 61 
Q 1341 213 1159 525 
L 1159 0 
L 581 0 
L 581 4863 
L 1159 4863 
L 1159 2969 
z
" transform="scale(0.015625)"/>
      <path id="DejaVuSans-24" d="M 2188 4044 
L 1331 1722 
L 3047 1722 
L 2188 4044 
z
M 1831 4666 
L 2547 4666 
L 4325 0 
L 3669 0 
L 3244 1197 
L 1141 1197 
L 716 0 
L 50 0 
L 1831 4666 
z
" transform="scale(0.015625)"/>
      <path id="DejaVuSans-37" d="M -19 4666 
L 3928 4666 
L 3928 4134 
L 2272 4134 
L 2272 0 
L 1638 0 
L 1638 4134 
L -19 4134 
L -19 4666 
z
" transform="scale(0.015625)"/>
      <path id="DejaVuSans-48" d="M 3597 1894 
L 3597 1613 
L 953 1613 
Q 991 1019 1311 708 
Q 1631 397 2203 397 
Q 2534 397 2845 478 
Q 3156 559 3463 722 
L 3463 178 
Q 3153 47 2828 -22 
Q 2503 -91 2169 -91 
Q 1331 -91 842 396 
Q 353 884 353 1716 
Q 353 2575 817 3079 
Q 1281 3584 2069 3584 
Q 2775 3584 3186 3129 
Q 3597 2675 3597 1894 
z
M 3022 2063 
Q 3016 2534 2758 2815 
Q 2500 3097 2075 3097 
Q 1594 3097 1305 2825 
Q 1016 2553 972 2059 
L 3022 2063 
z
" transform="scale(0.015625)"/>
      <path id="DejaVuSans-53" d="M 1159 525 
L 1159 -1331 
L 581 -1331 
L 581 3500 
L 1159 3500 
L 1159 2969 
Q 1341 3281 1617 3432 
Q 1894 3584 2278 3584 
Q 2916 3584 3314 3078 
Q 3713 2572 3713 1747 
Q 3713 922 3314 415 
Q 2916 -91 2278 -91 
Q 1894 -91 1617 61 
Q 1341 213 1159 525 
z
M 3116 1747 
Q 3116 2381 2855 2742 
Q 2594 3103 2138 3103 
Q 1681 3103 1420 2742 
Q 1159 2381 1159 1747 
Q 1159 1113 1420 752 
Q 1681 391 2138 391 
Q 2594 391 2855 752 
Q 3116 1113 3116 1747 
z
" transform="scale(0.015625)"/>
     </defs>
     <use xlink:href="#DejaVuSans-27"/>
     <use xlink:href="#DejaVuSans-55" transform="translate(77 0)"/>
     <use xlink:href="#DejaVuSans-5c" transform="translate(118.109375 0)"/>
     <use xlink:href="#DejaVuSans-10" transform="translate(175.546875 0)"/>
     <use xlink:href="#DejaVuSans-25" transform="translate(208.0625 0)"/>
     <use xlink:href="#DejaVuSans-58" transform="translate(276.671875 0)"/>
     <use xlink:href="#DejaVuSans-4f" transform="translate(340.046875 0)"/>
     <use xlink:href="#DejaVuSans-45" transform="translate(367.828125 0)"/>
     <use xlink:href="#DejaVuSans-3" transform="translate(431.3125 0)"/>
     <use xlink:href="#DejaVuSans-24" transform="translate(463.09375 0)"/>
     <use xlink:href="#DejaVuSans-4c" transform="translate(531.5 0)"/>
     <use xlink:href="#DejaVuSans-55" transform="translate(559.28125 0)"/>
     <use xlink:href="#DejaVuSans-3" transform="translate(600.390625 0)"/>
     <use xlink:href="#DejaVuSans-37" transform="translate(632.171875 0)"/>
     <use xlink:href="#DejaVuSans-48" transform="translate(676.265625 0)"/>
     <use xlink:href="#DejaVuSans-50" transform="translate(737.796875 0)"/>
     <use xlink:href="#DejaVuSans-53" transform="translate(835.203125 0)"/>
     <use xlink:href="#DejaVuSans-48" transform="translate(898.6875 0)"/>
     <use xlink:href="#DejaVuSans-55" transform="translate(960.21875 0)"/>
     <use xlink:href="#DejaVuSans-44" transform="translate(1001.328125 0)"/>
     <use xlink:href="#DejaVuSans-57" transform="translate(1062.609375 0)"/>
     <use xlink:href="#DejaVuSans-58" transform="translate(1101.8125 0)"/>
     <use xlink:href="#DejaVuSans-55" transform="translate(1165.1875 0)"/>
     <use xlink:href="#DejaVuSans-48" transform="translate(1204.09375 0)"/>
    </g>
   </g>
   <g id="legend_1">
    <g id="patch_6">
     <path d="M 271.491406 429.078406 
L 291.491406 429.078406 
L 291.491406 422.078406 
L 271.491406 422.078406 
z
" style="fill: #e2e8f0; opacity: 0.75; stroke: #e2e8f0; stroke-linejoin: miter"/>
    </g>
    <g id="text_21">
     <!-- Intended 7-day outage -->
     <g transform="translate(299.491406 429.078406) scale(0.1 -0.1)">
      <defs>
       <path id="DejaVuSans-2c" d="M 628 4666 
L 1259 4666 
L 1259 0 
L 628 0 
L 628 4666 
z
" transform="scale(0.015625)"/>
       <path id="DejaVuSans-4a" d="M 2906 1791 
Q 2906 2416 2648 2759 
Q 2391 3103 1925 3103 
Q 1463 3103 1205 2759 
Q 947 2416 947 1791 
Q 947 1169 1205 825 
Q 1463 481 1925 481 
Q 2391 481 2648 825 
Q 2906 1169 2906 1791 
z
M 3481 434 
Q 3481 -459 3084 -895 
Q 2688 -1331 1869 -1331 
Q 1566 -1331 1297 -1286 
Q 1028 -1241 775 -1147 
L 775 -588 
Q 1028 -725 1275 -790 
Q 1522 -856 1778 -856 
Q 2344 -856 2625 -561 
Q 2906 -266 2906 331 
L 2906 616 
Q 2728 306 2450 153 
Q 2172 0 1784 0 
Q 1141 0 747 490 
Q 353 981 353 1791 
Q 353 2603 747 3093 
Q 1141 3584 1784 3584 
Q 2172 3584 2450 3431 
Q 2728 3278 2906 2969 
L 2906 3500 
L 3481 3500 
L 3481 434 
z
" transform="scale(0.015625)"/>
      </defs>
      <use xlink:href="#DejaVuSans-2c"/>
      <use xlink:href="#DejaVuSans-51" transform="translate(29.5 0)"/>
      <use xlink:href="#DejaVuSans-57" transform="translate(92.875 0)"/>
      <use xlink:href="#DejaVuSans-48" transform="translate(132.078125 0)"/>
      <use xlink:href="#DejaVuSans-51" transform="translate(193.609375 0)"/>
      <use xlink:href="#DejaVuSans-47" transform="translate(256.984375 0)"/>
      <use xlink:href="#DejaVuSans-48" transform="translate(320.46875 0)"/>
      <use xlink:href="#DejaVuSans-47" transform="translate(382 0)"/>
      <use xlink:href="#DejaVuSans-3" transform="translate(445.484375 0)"/>
      <use xlink:href="#DejaVuSans-1a" transform="translate(477.265625 0)"/>
      <use xlink:href="#DejaVuSans-10" transform="translate(540.890625 0)"/>
      <use xlink:href="#DejaVuSans-47" transform="translate(576.96875 0)"/>
      <use xlink:href="#DejaVuSans-44" transform="translate(640.453125 0)"/>
      <use xlink:href="#DejaVuSans-5c" transform="translate(701.734375 0)"/>
      <use xlink:href="#DejaVuSans-3" transform="translate(760.921875 0)"/>
      <use xlink:href="#DejaVuSans-52" transform="translate(792.703125 0)"/>
      <use xlink:href="#DejaVuSans-58" transform="translate(853.890625 0)"/>
      <use xlink:href="#DejaVuSans-57" transform="translate(917.265625 0)"/>
      <use xlink:href="#DejaVuSans-44" transform="translate(956.46875 0)"/>
      <use xlink:href="#DejaVuSans-4a" transform="translate(1017.75 0)"/>
      <use xlink:href="#DejaVuSans-48" transform="translate(1081.234375 0)"/>
     </g>
    </g>
    <g id="line2d_41">
     <path d="M 271.491406 440.579187 
L 281.491406 440.579187 
L 291.491406 440.579187 
" style="fill: none; stroke: #64748b; stroke-width: 2; stroke-linecap: square"/>
    </g>
    <g id="text_22">
     <!-- LEVEL_00 -->
     <g transform="translate(299.491406 444.079187) scale(0.1 -0.1)">
      <defs>
       <path id="DejaVuSans-2f" d="M 628 4666 
L 1259 4666 
L 1259 531 
L 3531 531 
L 3531 0 
L 628 0 
L 628 4666 
z
" transform="scale(0.015625)"/>
       <path id="DejaVuSans-28" d="M 628 4666 
L 3578 4666 
L 3578 4134 
L 1259 4134 
L 1259 2753 
L 3481 2753 
L 3481 2222 
L 1259 2222 
L 1259 531 
L 3634 531 
L 3634 0 
L 628 0 
L 628 4666 
z
" transform="scale(0.015625)"/>
       <path id="DejaVuSans-39" d="M 1831 0 
L 50 4666 
L 709 4666 
L 2188 738 
L 3669 4666 
L 4325 4666 
L 2547 0 
L 1831 0 
z
" transform="scale(0.015625)"/>
       <path id="DejaVuSans-42" d="M 3263 -1063 
L 3263 -1509 
L -63 -1509 
L -63 -1063 
L 3263 -1063 
z
" transform="scale(0.015625)"/>
      </defs>
      <use xlink:href="#DejaVuSans-2f"/>
      <use xlink:href="#DejaVuSans-28" transform="translate(55.71875 0)"/>
      <use xlink:href="#DejaVuSans-39" transform="translate(118.90625 0)"/>
      <use xlink:href="#DejaVuSans-28" transform="translate(187.3125 0)"/>
      <use xlink:href="#DejaVuSans-2f" transform="translate(250.5 0)"/>
      <use xlink:href="#DejaVuSans-42" transform="translate(306.21875 0)"/>
      <use xlink:href="#DejaVuSans-13" transform="translate(356.21875 0)"/>
      <use xlink:href="#DejaVuSans-13" transform="translate(419.84375 0)"/>
     </g>
    </g>
    <g id="line2d_42">
     <path d="M 271.491406 455.579968 
L 281.491406 455.579968 
L 291.491406 455.579968 
" style="fill: none; stroke: #087e8b; stroke-width: 2; stroke-linecap: square"/>
    </g>
    <g id="text_23">
     <!-- LEVEL_01 -->
     <g transform="translate(299.491406 459.079968) scale(0.1 -0.1)">
      <use xlink:href="#DejaVuSans-2f"/>
      <use xlink:href="#DejaVuSans-28" transform="translate(55.71875 0)"/>
      <use xlink:href="#DejaVuSans-39" transform="translate(118.90625 0)"/>
      <use xlink:href="#DejaVuSans-28" transform="translate(187.3125 0)"/>
      <use xlink:href="#DejaVuSans-2f" transform="translate(250.5 0)"/>
      <use xlink:href="#DejaVuSans-42" transform="translate(306.21875 0)"/>
      <use xlink:href="#DejaVuSans-13" transform="translate(356.21875 0)"/>
      <use xlink:href="#DejaVuSans-14" transform="translate(419.84375 0)"/>
     </g>
    </g>
    <g id="line2d_43">
     <path d="M 433.767969 425.578406 
L 443.767969 425.578406 
L 453.767969 425.578406 
" style="fill: none; stroke: #d18b18; stroke-width: 2; stroke-linecap: square"/>
    </g>
    <g id="text_24">
     <!-- LEVEL_02.A -->
     <g transform="translate(461.767969 429.078406) scale(0.1 -0.1)">
      <defs>
       <path id="DejaVuSans-11" d="M 684 794 
L 1344 794 
L 1344 0 
L 684 0 
L 684 794 
z
" transform="scale(0.015625)"/>
      </defs>
      <use xlink:href="#DejaVuSans-2f"/>
      <use xlink:href="#DejaVuSans-28" transform="translate(55.71875 0)"/>
      <use xlink:href="#DejaVuSans-39" transform="translate(118.90625 0)"/>
      <use xlink:href="#DejaVuSans-28" transform="translate(187.3125 0)"/>
      <use xlink:href="#DejaVuSans-2f" transform="translate(250.5 0)"/>
      <use xlink:href="#DejaVuSans-42" transform="translate(306.21875 0)"/>
      <use xlink:href="#DejaVuSans-13" transform="translate(356.21875 0)"/>
      <use xlink:href="#DejaVuSans-15" transform="translate(419.84375 0)"/>
      <use xlink:href="#DejaVuSans-11" transform="translate(483.46875 0)"/>
      <use xlink:href="#DejaVuSans-24" transform="translate(515.25 0)"/>
     </g>
    </g>
    <g id="line2d_44">
     <path d="M 433.767969 440.579187 
L 443.767969 440.579187 
L 453.767969 440.579187 
" style="fill: none; stroke: #a44a62; stroke-width: 2; stroke-linecap: square"/>
    </g>
    <g id="text_25">
     <!-- LEVEL_02.B -->
     <g transform="translate(461.767969 444.079187) scale(0.1 -0.1)">
      <use xlink:href="#DejaVuSans-2f"/>
      <use xlink:href="#DejaVuSans-28" transform="translate(55.71875 0)"/>
      <use xlink:href="#DejaVuSans-39" transform="translate(118.90625 0)"/>
      <use xlink:href="#DejaVuSans-28" transform="translate(187.3125 0)"/>
      <use xlink:href="#DejaVuSans-2f" transform="translate(250.5 0)"/>
      <use xlink:href="#DejaVuSans-42" transform="translate(306.21875 0)"/>
      <use xlink:href="#DejaVuSans-13" transform="translate(356.21875 0)"/>
      <use xlink:href="#DejaVuSans-15" transform="translate(419.84375 0)"/>
      <use xlink:href="#DejaVuSans-11" transform="translate(483.46875 0)"/>
      <use xlink:href="#DejaVuSans-25" transform="translate(515.25 0)"/>
     </g>
    </g>
    <g id="line2d_45">
     <path d="M 540.153906 425.578406 
L 550.153906 425.578406 
L 560.153906 425.578406 
" style="fill: none; stroke: #5f5aa2; stroke-width: 2; stroke-linecap: square"/>
    </g>
    <g id="text_26">
     <!-- LEVEL_03 -->
     <g transform="translate(568.153906 429.078406) scale(0.1 -0.1)">
      <use xlink:href="#DejaVuSans-2f"/>
      <use xlink:href="#DejaVuSans-28" transform="translate(55.71875 0)"/>
      <use xlink:href="#DejaVuSans-39" transform="translate(118.90625 0)"/>
      <use xlink:href="#DejaVuSans-28" transform="translate(187.3125 0)"/>
      <use xlink:href="#DejaVuSans-2f" transform="translate(250.5 0)"/>
      <use xlink:href="#DejaVuSans-42" transform="translate(306.21875 0)"/>
      <use xlink:href="#DejaVuSans-13" transform="translate(356.21875 0)"/>
      <use xlink:href="#DejaVuSans-16" transform="translate(419.84375 0)"/>
     </g>
    </g>
    <g id="line2d_46">
     <path d="M 540.153906 440.579187 
L 550.153906 440.579187 
L 560.153906 440.579187 
" style="fill: none; stroke: #222222; stroke-width: 2; stroke-linecap: square"/>
    </g>
    <g id="text_27">
     <!-- Environment -->
     <g transform="translate(568.153906 444.079187) scale(0.1 -0.1)">
      <defs>
       <path id="DejaVuSans-59" d="M 191 3500 
L 800 3500 
L 1894 563 
L 2988 3500 
L 3597 3500 
L 2284 0 
L 1503 0 
L 191 3500 
z
" transform="scale(0.015625)"/>
      </defs>
      <use xlink:href="#DejaVuSans-28"/>
      <use xlink:href="#DejaVuSans-51" transform="translate(63.1875 0)"/>
      <use xlink:href="#DejaVuSans-59" transform="translate(126.5625 0)"/>
      <use xlink:href="#DejaVuSans-4c" transform="translate(185.75 0)"/>
      <use xlink:href="#DejaVuSans-55" transform="translate(213.53125 0)"/>
      <use xlink:href="#DejaVuSans-52" transform="translate(252.4375 0)"/>
      <use xlink:href="#DejaVuSans-51" transform="translate(313.625 0)"/>
      <use xlink:href="#DejaVuSans-50" transform="translate(377 0)"/>
      <use xlink:href="#DejaVuSans-48" transform="translate(474.40625 0)"/>
      <use xlink:href="#DejaVuSans-51" transform="translate(535.9375 0)"/>
      <use xlink:href="#DejaVuSans-57" transform="translate(599.3125 0)"/>
     </g>
    </g>
   </g>
  </g>
 </g>
 <defs>
  <clipPath id="p8870170966">
   <rect x="45.99649" y="19.030178" width="811.503895" height="342.130253"/>
  </clipPath>
 </defs>
</svg>
