<?xml version="1.0" encoding="utf-8" standalone="no"?>
<!DOCTYPE svg PUBLIC "-//W3C//DTD SVG 1.1//EN"
  "http://www.w3.org/Graphics/SVG/1.1/DTD/svg11.dtd">
<svg xmlns:xlink="http://www.w3.org/1999/xlink" width="864pt" height="468pt" viewBox="0 0 864 468" xmlns="http://www.w3.org/2000/svg" version="1.1">
 <metadata>
  <rdf:RDF xmlns:dc="http://purl.org/dc/elements/1.1/" xmlns:cc="http://creativecommons.org/ns#" xmlns:rdf="http://www.w3.org/1999/02/22-rdf-syntax-ns#">
   <cc:Work>
    <dc:type rdf:resource="http://purl.org/dc/dcmitype/StillImage"/>
    <dc:format>image/svg+xml</dc:format>
    <dc:creator>
     <cc:Agent>
      <dc:title>Matplotlib v3.11.1, https://matplotlib.org/</dc:title>
     </cc:Agent>
    </dc:creator>
   </cc:Work>
  </rdf:RDF>
 </metadata>
 <defs>
  <style type="text/css">*{stroke-linejoin: round; stroke-linecap: butt}</style>
 </defs>
 <g id="figure_1">
  <g id="patch_1">
   <path d="M 0 468 
L 864 468 
L 864 0 
L 0 0 
z
" style="fill: #ffffff"/>
  </g>
  <g id="axes_1">
   <g id="patch_2">
    <path d="M 38.99774 361.16043 
L 857.500385 361.16043 
L 857.500385 19.030178 
L 38.99774 19.030178 
z
" style="fill: #f6f8fa"/>
   </g>
   <g id="patch_3">
    <path d="M 129.942478 361.16043 
L 766.555647 361.16043 
L 766.555647 19.030178 
L 129.942478 19.030178 
z
" clip-path="url(#pa9be0628db)" style="fill: #e2e8f0; opacity: 0.75; stroke: #e2e8f0; stroke-linejoin: miter"/>
   </g>
   <g id="matplotlib.axis_1">
    <g id="xtick_1">
     <g id="line2d_1">
      <path d="M 38.99774 361.16043 
L 38.99774 19.030178 
" clip-path="url(#pa9be0628db)" style="fill: none; stroke: #b0b0b0; stroke-opacity: 0.18; stroke-width: 0.8; stroke-linecap: square"/>
     </g>
     <g id="line2d_2">
      <defs>
       <path id="m5e257b2b6a" d="M 0 0 
L 0 3.5 
" style="stroke: #000000; stroke-width: 0.8"/>
      </defs>
      <g>
       <use xlink:href="#m5e257b2b6a" x="38.99774" y="361.16043" style="stroke: #000000; stroke-width: 0.8"/>
      </g>
     </g>
     <g id="text_1">
      <!-- 0 -->
      <g transform="translate(35.498365 376.517852) scale(0.11 -0.11)">
       <defs>
        <path id="DejaVuSans-13" d="M 2034 4250 
Q 1547 4250 1301 3770 
Q 1056 3291 1056 2328 
Q 1056 1369 1301 889 
Q 1547 409 2034 409 
Q 2525 409 2770 889 
Q 3016 1369 3016 2328 
Q 3016 3291 2770 3770 
Q 2525 4250 2034 4250 
z
M 2034 4750 
Q 2819 4750 3233 4129 
Q 3647 3509 3647 2328 
Q 3647 1150 3233 529 
Q 2819 -91 2034 -91 
Q 1250 -91 836 529 
Q 422 1150 422 2328 
Q 422 3509 836 4129 
Q 1250 4750 2034 4750 
z
" transform="scale(0.015625)"/>
       </defs>
       <use xlink:href="#DejaVuSans-13"/>
      </g>
     </g>
    </g>
    <g id="xtick_2">
     <g id="line2d_3">
      <path d="M 129.942478 361.16043 
L 129.942478 19.030178 
" clip-path="url(#pa9be0628db)" style="fill: none; stroke: #b0b0b0; stroke-opacity: 0.18; stroke-width: 0.8; stroke-linecap: square"/>
     </g>
     <g id="line2d_4">
      <g>
       <use xlink:href="#m5e257b2b6a" x="129.942478" y="361.16043" style="stroke: #000000; stroke-width: 0.8"/>
      </g>
     </g>
     <g id="text_2">
      <!-- 1 -->
      <g transform="translate(126.443103 376.517852) scale(0.11 -0.11)">
       <defs>
        <path id="DejaVuSans-14" d="M 794 531 
L 1825 531 
L 1825 4091 
L 703 3866 
L 703 4441 
L 1819 4666 
L 2450 4666 
L 2450 531 
L 3481 531 
L 3481 0 
L 794 0 
L 794 531 
z
" transform="scale(0.015625)"/>
       </defs>
       <use xlink:href="#DejaVuSans-14"/>
      </g>
     </g>
    </g>
    <g id="xtick_3">
     <g id="line2d_5">
      <path d="M 220.887217 361.16043 
L 220.887217 19.030178 
" clip-path="url(#pa9be0628db)" style="fill: none; stroke: #b0b0b0; stroke-opacity: 0.18; stroke-width: 0.8; stroke-linecap: square"/>
     </g>
     <g id="line2d_6">
      <g>
       <use xlink:href="#m5e257b2b6a" x="220.887217" y="361.16043" style="stroke: #000000; stroke-width: 0.8"/>
      </g>
     </g>
     <g id="text_3">
      <!-- 2 -->
      <g transform="translate(217.387842 376.517852) scale(0.11 -0.11)">
       <defs>
        <path id="DejaVuSans-15" d="M 1228 531 
L 3431 531 
L 3431 0 
L 469 0 
L 469 531 
Q 828 903 1448 1529 
Q 2069 2156 2228 2338 
Q 2531 2678 2651 2914 
Q 2772 3150 2772 3378 
Q 2772 3750 2511 3984 
Q 2250 4219 1831 4219 
Q 1534 4219 1204 4116 
Q 875 4013 500 3803 
L 500 4441 
Q 881 4594 1212 4672 
Q 1544 4750 1819 4750 
Q 2544 4750 2975 4387 
Q 3406 4025 3406 3419 
Q 3406 3131 3298 2873 
Q 3191 2616 2906 2266 
Q 2828 2175 2409 1742 
Q 1991 1309 1228 531 
z
" transform="scale(0.015625)"/>
       </defs>
       <use xlink:href="#DejaVuSans-15"/>
      </g>
     </g>
    </g>
    <g id="xtick_4">
     <g id="line2d_7">
      <path d="M 311.831955 361.16043 
L 311.831955 19.030178 
" clip-path="url(#pa9be0628db)" style="fill: none; stroke: #b0b0b0; stroke-opacity: 0.18; stroke-width: 0.8; stroke-linecap: square"/>
     </g>
     <g id="line2d_8">
      <g>
       <use xlink:href="#m5e257b2b6a" x="311.831955" y="361.16043" style="stroke: #000000; stroke-width: 0.8"/>
      </g>
     </g>
     <g id="text_4">
      <!-- 3 -->
      <g transform="translate(308.33258 376.517852) scale(0.11 -0.11)">
       <defs>
        <path id="DejaVuSans-16" d="M 2597 2516 
Q 3050 2419 3304 2112 
Q 3559 1806 3559 1356 
Q 3559 666 3084 287 
Q 2609 -91 1734 -91 
Q 1441 -91 1130 -33 
Q 819 25 488 141 
L 488 750 
Q 750 597 1062 519 
Q 1375 441 1716 441 
Q 2309 441 2620 675 
Q 2931 909 2931 1356 
Q 2931 1769 2642 2001 
Q 2353 2234 1838 2234 
L 1294 2234 
L 1294 2753 
L 1863 2753 
Q 2328 2753 2575 2939 
Q 2822 3125 2822 3475 
Q 2822 3834 2567 4026 
Q 2313 4219 1838 4219 
Q 1578 4219 1281 4162 
Q 984 4106 628 3988 
L 628 4550 
Q 988 4650 1302 4700 
Q 1616 4750 1894 4750 
Q 2613 4750 3031 4423 
Q 3450 4097 3450 3541 
Q 3450 3153 3228 2886 
Q 3006 2619 2597 2516 
z
" transform="scale(0.015625)"/>
       </defs>
       <use xlink:href="#DejaVuSans-16"/>
      </g>
     </g>
    </g>
    <g id="xtick_5">
     <g id="line2d_9">
      <path d="M 402.776693 361.16043 
L 402.776693 19.030178 
" clip-path="url(#pa9be0628db)" style="fill: none; stroke: #b0b0b0; stroke-opacity: 0.18; stroke-width: 0.8; stroke-linecap: square"/>
     </g>
     <g id="line2d_10">
      <g>
       <use xlink:href="#m5e257b2b6a" x="402.776693" y="361.16043" style="stroke: #000000; stroke-width: 0.8"/>
      </g>
     </g>
     <g id="text_5">
      <!-- 4 -->
      <g transform="translate(399.277318 376.517852) scale(0.11 -0.11)">
       <defs>
        <path id="DejaVuSans-17" d="M 2419 4116 
L 825 1625 
L 2419 1625 
L 2419 4116 
z
M 2253 4666 
L 3047 4666 
L 3047 1625 
L 3713 1625 
L 3713 1100 
L 3047 1100 
L 3047 0 
L 2419 0 
L 2419 1100 
L 313 1100 
L 313 1709 
L 2253 4666 
z
" transform="scale(0.015625)"/>
       </defs>
       <use xlink:href="#DejaVuSans-17"/>
      </g>
     </g>
    </g>
    <g id="xtick_6">
     <g id="line2d_11">
      <path d="M 493.721432 361.16043 
L 493.721432 19.030178 
" clip-path="url(#pa9be0628db)" style="fill: none; stroke: #b0b0b0; stroke-opacity: 0.18; stroke-width: 0.8; stroke-linecap: square"/>
     </g>
     <g id="line2d_12">
      <g>
       <use xlink:href="#m5e257b2b6a" x="493.721432" y="361.16043" style="stroke: #000000; stroke-width: 0.8"/>
      </g>
     </g>
     <g id="text_6">
      <!-- 5 -->
      <g transform="translate(490.222057 376.517852) scale(0.11 -0.11)">
       <defs>
        <path id="DejaVuSans-18" d="M 691 4666 
L 3169 4666 
L 3169 4134 
L 1269 4134 
L 1269 2991 
Q 1406 3038 1543 3061 
Q 1681 3084 1819 3084 
Q 2600 3084 3056 2656 
Q 3513 2228 3513 1497 
Q 3513 744 3044 326 
Q 2575 -91 1722 -91 
Q 1428 -91 1123 -41 
Q 819 9 494 109 
L 494 744 
Q 775 591 1075 516 
Q 1375 441 1709 441 
Q 2250 441 2565 725 
Q 2881 1009 2881 1497 
Q 2881 1984 2565 2268 
Q 2250 2553 1709 2553 
Q 1456 2553 1204 2497 
Q 953 2441 691 2322 
L 691 4666 
z
" transform="scale(0.015625)"/>
       </defs>
       <use xlink:href="#DejaVuSans-18"/>
      </g>
     </g>
    </g>
    <g id="xtick_7">
     <g id="line2d_13">
      <path d="M 584.66617 361.16043 
L 584.66617 19.030178 
" clip-path="url(#pa9be0628db)" style="fill: none; stroke: #b0b0b0; stroke-opacity: 0.18; stroke-width: 0.8; stroke-linecap: square"/>
     </g>
     <g id="line2d_14">
      <g>
       <use xlink:href="#m5e257b2b6a" x="584.66617" y="361.16043" style="stroke: #000000; stroke-width: 0.8"/>
      </g>
     </g>
     <g id="text_7">
      <!-- 6 -->
      <g transform="translate(581.166795 376.517852) scale(0.11 -0.11)">
       <defs>
        <path id="DejaVuSans-19" d="M 2113 2584 
Q 1688 2584 1439 2293 
Q 1191 2003 1191 1497 
Q 1191 994 1439 701 
Q 1688 409 2113 409 
Q 2538 409 2786 701 
Q 3034 994 3034 1497 
Q 3034 2003 2786 2293 
Q 2538 2584 2113 2584 
z
M 3366 4563 
L 3366 3988 
Q 3128 4100 2886 4159 
Q 2644 4219 2406 4219 
Q 1781 4219 1451 3797 
Q 1122 3375 1075 2522 
Q 1259 2794 1537 2939 
Q 1816 3084 2150 3084 
Q 2853 3084 3261 2657 
Q 3669 2231 3669 1497 
Q 3669 778 3244 343 
Q 2819 -91 2113 -91 
Q 1303 -91 875 529 
Q 447 1150 447 2328 
Q 447 3434 972 4092 
Q 1497 4750 2381 4750 
Q 2619 4750 2861 4703 
Q 3103 4656 3366 4563 
z
" transform="scale(0.015625)"/>
       </defs>
       <use xlink:href="#DejaVuSans-19"/>
      </g>
     </g>
    </g>
    <g id="xtick_8">
     <g id="line2d_15">
      <path d="M 675.610908 361.16043 
L 675.610908 19.030178 
" clip-path="url(#pa9be0628db)" style="fill: none; stroke: #b0b0b0; stroke-opacity: 0.18; stroke-width: 0.8; stroke-linecap: square"/>
     </g>
     <g id="line2d_16">
      <g>
       <use xlink:href="#m5e257b2b6a" x="675.610908" y="361.16043" style="stroke: #000000; stroke-width: 0.8"/>
      </g>
     </g>
     <g id="text_8">
      <!-- 7 -->
      <g transform="translate(672.111533 376.517852) scale(0.11 -0.11)">
       <defs>
        <path id="DejaVuSans-1a" d="M 525 4666 
L 3525 4666 
L 3525 4397 
L 1831 0 
L 1172 0 
L 2766 4134 
L 525 4134 
L 525 4666 
z
" transform="scale(0.015625)"/>
       </defs>
       <use xlink:href="#DejaVuSans-1a"/>
      </g>
     </g>
    </g>
    <g id="xtick_9">
     <g id="line2d_17">
      <path d="M 766.555647 361.16043 
L 766.555647 19.030178 
" clip-path="url(#pa9be0628db)" style="fill: none; stroke: #b0b0b0; stroke-opacity: 0.18; stroke-width: 0.8; stroke-linecap: square"/>
     </g>
     <g id="line2d_18">
      <g>
       <use xlink:href="#m5e257b2b6a" x="766.555647" y="361.16043" style="stroke: #000000; stroke-width: 0.8"/>
      </g>
     </g>
     <g id="text_9">
      <!-- 8 -->
      <g transform="translate(763.056272 376.517852) scale(0.11 -0.11)">
       <defs>
        <path id="DejaVuSans-1b" d="M 2034 2216 
Q 1584 2216 1326 1975 
Q 1069 1734 1069 1313 
Q 1069 891 1326 650 
Q 1584 409 2034 409 
Q 2484 409 2743 651 
Q 3003 894 3003 1313 
Q 3003 1734 2745 1975 
Q 2488 2216 2034 2216 
z
M 1403 2484 
Q 997 2584 770 2862 
Q 544 3141 544 3541 
Q 544 4100 942 4425 
Q 1341 4750 2034 4750 
Q 2731 4750 3128 4425 
Q 3525 4100 3525 3541 
Q 3525 3141 3298 2862 
Q 3072 2584 2669 2484 
Q 3125 2378 3379 2068 
Q 3634 1759 3634 1313 
Q 3634 634 3220 271 
Q 2806 -91 2034 -91 
Q 1263 -91 848 271 
Q 434 634 434 1313 
Q 434 1759 690 2068 
Q 947 2378 1403 2484 
z
M 1172 3481 
Q 1172 3119 1398 2916 
Q 1625 2713 2034 2713 
Q 2441 2713 2670 2916 
Q 2900 3119 2900 3481 
Q 2900 3844 2670 4047 
Q 2441 4250 2034 4250 
Q 1625 4250 1398 4047 
Q 1172 3844 1172 3481 
z
" transform="scale(0.015625)"/>
       </defs>
       <use xlink:href="#DejaVuSans-1b"/>
      </g>
     </g>
    </g>
    <g id="xtick_10">
     <g id="line2d_19">
      <path d="M 857.500385 361.16043 
L 857.500385 19.030178 
" clip-path="url(#pa9be0628db)" style="fill: none; stroke: #b0b0b0; stroke-opacity: 0.18; stroke-width: 0.8; stroke-linecap: square"/>
     </g>
     <g id="line2d_20">
      <g>
       <use xlink:href="#m5e257b2b6a" x="857.500385" y="361.16043" style="stroke: #000000; stroke-width: 0.8"/>
      </g>
     </g>
     <g id="text_10">
      <!-- 9 -->
      <g transform="translate(854.00101 376.517852) scale(0.11 -0.11)">
       <defs>
        <path id="DejaVuSans-1c" d="M 703 97 
L 703 672 
Q 941 559 1184 500 
Q 1428 441 1663 441 
Q 2288 441 2617 861 
Q 2947 1281 2994 2138 
Q 2813 1869 2534 1725 
Q 2256 1581 1919 1581 
Q 1219 1581 811 2004 
Q 403 2428 403 3163 
Q 403 3881 828 4315 
Q 1253 4750 1959 4750 
Q 2769 4750 3195 4129 
Q 3622 3509 3622 2328 
Q 3622 1225 3098 567 
Q 2575 -91 1691 -91 
Q 1453 -91 1209 -44 
Q 966 3 703 97 
z
M 1959 2075 
Q 2384 2075 2632 2365 
Q 2881 2656 2881 3163 
Q 2881 3666 2632 3958 
Q 2384 4250 1959 4250 
Q 1534 4250 1286 3958 
Q 1038 3666 1038 3163 
Q 1038 2656 1286 2365 
Q 1534 2075 1959 2075 
z
" transform="scale(0.015625)"/>
       </defs>
       <use xlink:href="#DejaVuSans-1c"/>
      </g>
     </g>
    </g>
    <g id="text_11">
     <!-- Simulation day — January 19 start -->
     <g transform="translate(353.936953 391.518712) scale(0.11 -0.11)">
      <defs>
       <path id="DejaVuSans-36" d="M 3425 4513 
L 3425 3897 
Q 3066 4069 2747 4153 
Q 2428 4238 2131 4238 
Q 1616 4238 1336 4038 
Q 1056 3838 1056 3469 
Q 1056 3159 1242 3001 
Q 1428 2844 1947 2747 
L 2328 2669 
Q 3034 2534 3370 2195 
Q 3706 1856 3706 1288 
Q 3706 609 3251 259 
Q 2797 -91 1919 -91 
Q 1588 -91 1214 -16 
Q 841 59 441 206 
L 441 856 
Q 825 641 1194 531 
Q 1563 422 1919 422 
Q 2459 422 2753 634 
Q 3047 847 3047 1241 
Q 3047 1584 2836 1778 
Q 2625 1972 2144 2069 
L 1759 2144 
Q 1053 2284 737 2584 
Q 422 2884 422 3419 
Q 422 4038 858 4394 
Q 1294 4750 2059 4750 
Q 2388 4750 2728 4690 
Q 3069 4631 3425 4513 
z
" transform="scale(0.015625)"/>
       <path id="DejaVuSans-4c" d="M 603 3500 
L 1178 3500 
L 1178 0 
L 603 0 
L 603 3500 
z
M 603 4863 
L 1178 4863 
L 1178 4134 
L 603 4134 
L 603 4863 
z
" transform="scale(0.015625)"/>
       <path id="DejaVuSans-50" d="M 3328 2828 
Q 3544 3216 3844 3400 
Q 4144 3584 4550 3584 
Q 5097 3584 5394 3201 
Q 5691 2819 5691 2113 
L 5691 0 
L 5113 0 
L 5113 2094 
Q 5113 2597 4934 2840 
Q 4756 3084 4391 3084 
Q 3944 3084 3684 2787 
Q 3425 2491 3425 1978 
L 3425 0 
L 2847 0 
L 2847 2094 
Q 2847 2600 2669 2842 
Q 2491 3084 2119 3084 
Q 1678 3084 1418 2786 
Q 1159 2488 1159 1978 
L 1159 0 
L 581 0 
L 581 3500 
L 1159 3500 
L 1159 2956 
Q 1356 3278 1631 3431 
Q 1906 3584 2284 3584 
Q 2666 3584 2933 3390 
Q 3200 3197 3328 2828 
z
" transform="scale(0.015625)"/>
       <path id="DejaVuSans-58" d="M 544 1381 
L 544 3500 
L 1119 3500 
L 1119 1403 
Q 1119 906 1312 657 
Q 1506 409 1894 409 
Q 2359 409 2629 706 
Q 2900 1003 2900 1516 
L 2900 3500 
L 3475 3500 
L 3475 0 
L 2900 0 
L 2900 538 
Q 2691 219 2414 64 
Q 2138 -91 1772 -91 
Q 1169 -91 856 284 
Q 544 659 544 1381 
z
M 1991 3584 
L 1991 3584 
z
" transform="scale(0.015625)"/>
       <path id="DejaVuSans-4f" d="M 603 4863 
L 1178 4863 
L 1178 0 
L 603 0 
L 603 4863 
z
" transform="scale(0.015625)"/>
       <path id="DejaVuSans-44" d="M 2194 1759 
Q 1497 1759 1228 1600 
Q 959 1441 959 1056 
Q 959 750 1161 570 
Q 1363 391 1709 391 
Q 2188 391 2477 730 
Q 2766 1069 2766 1631 
L 2766 1759 
L 2194 1759 
z
M 3341 1997 
L 3341 0 
L 2766 0 
L 2766 531 
Q 2569 213 2275 61 
Q 1981 -91 1556 -91 
Q 1019 -91 701 211 
Q 384 513 384 1019 
Q 384 1609 779 1909 
Q 1175 2209 1959 2209 
L 2766 2209 
L 2766 2266 
Q 2766 2663 2505 2880 
Q 2244 3097 1772 3097 
Q 1472 3097 1187 3025 
Q 903 2953 641 2809 
L 641 3341 
Q 956 3463 1253 3523 
Q 1550 3584 1831 3584 
Q 2591 3584 2966 3190 
Q 3341 2797 3341 1997 
z
" transform="scale(0.015625)"/>
       <path id="DejaVuSans-57" d="M 1172 4494 
L 1172 3500 
L 2356 3500 
L 2356 3053 
L 1172 3053 
L 1172 1153 
Q 1172 725 1289 603 
Q 1406 481 1766 481 
L 2356 481 
L 2356 0 
L 1766 0 
Q 1100 0 847 248 
Q 594 497 594 1153 
L 594 3053 
L 172 3053 
L 172 3500 
L 594 3500 
L 594 4494 
L 1172 4494 
z
" transform="scale(0.015625)"/>
       <path id="DejaVuSans-52" d="M 1959 3097 
Q 1497 3097 1228 2736 
Q 959 2375 959 1747 
Q 959 1119 1226 758 
Q 1494 397 1959 397 
Q 2419 397 2687 759 
Q 2956 1122 2956 1747 
Q 2956 2369 2687 2733 
Q 2419 3097 1959 3097 
z
M 1959 3584 
Q 2709 3584 3137 3096 
Q 3566 2609 3566 1747 
Q 3566 888 3137 398 
Q 2709 -91 1959 -91 
Q 1206 -91 779 398 
Q 353 888 353 1747 
Q 353 2609 779 3096 
Q 1206 3584 1959 3584 
z
" transform="scale(0.015625)"/>
       <path id="DejaVuSans-51" d="M 3513 2113 
L 3513 0 
L 2938 0 
L 2938 2094 
Q 2938 2591 2744 2837 
Q 2550 3084 2163 3084 
Q 1697 3084 1428 2787 
Q 1159 2491 1159 1978 
L 1159 0 
L 581 0 
L 581 3500 
L 1159 3500 
L 1159 2956 
Q 1366 3272 1645 3428 
Q 1925 3584 2291 3584 
Q 2894 3584 3203 3211 
Q 3513 2838 3513 2113 
z
" transform="scale(0.015625)"/>
       <path id="DejaVuSans-3" transform="scale(0.015625)"/>
       <path id="DejaVuSans-47" d="M 2906 2969 
L 2906 4863 
L 3481 4863 
L 3481 0 
L 2906 0 
L 2906 525 
Q 2725 213 2448 61 
Q 2172 -91 1784 -91 
Q 1150 -91 751 415 
Q 353 922 353 1747 
Q 353 2572 751 3078 
Q 1150 3584 1784 3584 
Q 2172 3584 2448 3432 
Q 2725 3281 2906 2969 
z
M 947 1747 
Q 947 1113 1208 752 
Q 1469 391 1925 391 
Q 2381 391 2643 752 
Q 2906 1113 2906 1747 
Q 2906 2381 2643 2742 
Q 2381 3103 1925 3103 
Q 1469 3103 1208 2742 
Q 947 2381 947 1747 
z
" transform="scale(0.015625)"/>
       <path id="DejaVuSans-5c" d="M 2059 -325 
Q 1816 -950 1584 -1140 
Q 1353 -1331 966 -1331 
L 506 -1331 
L 506 -850 
L 844 -850 
Q 1081 -850 1212 -737 
Q 1344 -625 1503 -206 
L 1606 56 
L 191 3500 
L 800 3500 
L 1894 763 
L 2988 3500 
L 3597 3500 
L 2059 -325 
z
" transform="scale(0.015625)"/>
       <path id="DejaVuSans-af6" d="M 313 1978 
L 6088 1978 
L 6088 1528 
L 313 1528 
L 313 1978 
z
" transform="scale(0.015625)"/>
       <path id="DejaVuSans-2d" d="M 628 4666 
L 1259 4666 
L 1259 325 
Q 1259 -519 939 -900 
Q 619 -1281 -91 -1281 
L -331 -1281 
L -331 -750 
L -134 -750 
Q 284 -750 456 -515 
Q 628 -281 628 325 
L 628 4666 
z
" transform="scale(0.015625)"/>
       <path id="DejaVuSans-55" d="M 2631 2963 
Q 2534 3019 2420 3045 
Q 2306 3072 2169 3072 
Q 1681 3072 1420 2755 
Q 1159 2438 1159 1844 
L 1159 0 
L 581 0 
L 581 3500 
L 1159 3500 
L 1159 2956 
Q 1341 3275 1631 3429 
Q 1922 3584 2338 3584 
Q 2397 3584 2469 3576 
Q 2541 3569 2628 3553 
L 2631 2963 
z
" transform="scale(0.015625)"/>
       <path id="DejaVuSans-56" d="M 2834 3397 
L 2834 2853 
Q 2591 2978 2328 3040 
Q 2066 3103 1784 3103 
Q 1356 3103 1142 2972 
Q 928 2841 928 2578 
Q 928 2378 1081 2264 
Q 1234 2150 1697 2047 
L 1894 2003 
Q 2506 1872 2764 1633 
Q 3022 1394 3022 966 
Q 3022 478 2636 193 
Q 2250 -91 1575 -91 
Q 1294 -91 989 -36 
Q 684 19 347 128 
L 347 722 
Q 666 556 975 473 
Q 1284 391 1588 391 
Q 1994 391 2212 530 
Q 2431 669 2431 922 
Q 2431 1156 2273 1281 
Q 2116 1406 1581 1522 
L 1381 1569 
Q 847 1681 609 1914 
Q 372 2147 372 2553 
Q 372 3047 722 3315 
Q 1072 3584 1716 3584 
Q 2034 3584 2315 3537 
Q 2597 3491 2834 3397 
z
" transform="scale(0.015625)"/>
      </defs>
      <use xlink:href="#DejaVuSans-36"/>
      <use xlink:href="#DejaVuSans-4c" transform="translate(63.484375 0)"/>
      <use xlink:href="#DejaVuSans-50" transform="translate(91.265625 0)"/>
      <use xlink:href="#DejaVuSans-58" transform="translate(188.671875 0)"/>
      <use xlink:href="#DejaVuSans-4f" transform="translate(252.046875 0)"/>
      <use xlink:href="#DejaVuSans-44" transform="translate(279.828125 0)"/>
      <use xlink:href="#DejaVuSans-57" transform="translate(341.109375 0)"/>
      <use xlink:href="#DejaVuSans-4c" transform="translate(380.3125 0)"/>
      <use xlink:href="#DejaVuSans-52" transform="translate(408.09375 0)"/>
      <use xlink:href="#DejaVuSans-51" transform="translate(469.28125 0)"/>
      <use xlink:href="#DejaVuSans-3" transform="translate(532.65625 0)"/>
      <use xlink:href="#DejaVuSans-47" transform="translate(564.4375 0)"/>
      <use xlink:href="#DejaVuSans-44" transform="translate(627.921875 0)"/>
      <use xlink:href="#DejaVuSans-5c" transform="translate(689.203125 0)"/>
      <use xlink:href="#DejaVuSans-3" transform="translate(748.390625 0)"/>
      <use xlink:href="#DejaVuSans-af6" transform="translate(780.171875 0)"/>
      <use xlink:href="#DejaVuSans-3" transform="translate(880.171875 0)"/>
      <use xlink:href="#DejaVuSans-2d" transform="translate(911.953125 0)"/>
      <use xlink:href="#DejaVuSans-44" transform="translate(941.453125 0)"/>
      <use xlink:href="#DejaVuSans-51" transform="translate(1002.734375 0)"/>
      <use xlink:href="#DejaVuSans-58" transform="translate(1066.109375 0)"/>
      <use xlink:href="#DejaVuSans-44" transform="translate(1129.484375 0)"/>
      <use xlink:href="#DejaVuSans-55" transform="translate(1190.765625 0)"/>
      <use xlink:href="#DejaVuSans-5c" transform="translate(1231.875 0)"/>
      <use xlink:href="#DejaVuSans-3" transform="translate(1291.0625 0)"/>
      <use xlink:href="#DejaVuSans-14" transform="translate(1322.84375 0)"/>
      <use xlink:href="#DejaVuSans-1c" transform="translate(1386.46875 0)"/>
      <use xlink:href="#DejaVuSans-3" transform="translate(1450.09375 0)"/>
      <use xlink:href="#DejaVuSans-56" transform="translate(1481.875 0)"/>
      <use xlink:href="#DejaVuSans-57" transform="translate(1533.96875 0)"/>
      <use xlink:href="#DejaVuSans-44" transform="translate(1573.171875 0)"/>
      <use xlink:href="#DejaVuSans-55" transform="translate(1634.453125 0)"/>
      <use xlink:href="#DejaVuSans-57" transform="translate(1675.5625 0)"/>
     </g>
    </g>
   </g>
   <g id="matplotlib.axis_2">
    <g id="ytick_1">
     <g id="line2d_21">
      <path d="M 38.99774 335.780778 
L 857.500385 335.780778 
" clip-path="url(#pa9be0628db)" style="fill: none; stroke: #b0b0b0; stroke-opacity: 0.18; stroke-width: 0.8; stroke-linecap: square"/>
     </g>
     <g id="line2d_22">
      <defs>
       <path id="mb82169aad6" d="M 0 0 
L -3.5 0 
" style="stroke: #000000; stroke-width: 0.8"/>
      </defs>
      <g>
       <use xlink:href="#mb82169aad6" x="38.99774" y="335.780778" style="stroke: #000000; stroke-width: 0.8"/>
      </g>
     </g>
     <g id="text_12">
      <!-- 0 -->
      <g transform="translate(24.99899 339.959489) scale(0.11 -0.11)">
       <use xlink:href="#DejaVuSans-13"/>
      </g>
     </g>
    </g>
    <g id="ytick_2">
     <g id="line2d_23">
      <path d="M 38.99774 291.486774 
L 857.500385 291.486774 
" clip-path="url(#pa9be0628db)" style="fill: none; stroke: #b0b0b0; stroke-opacity: 0.18; stroke-width: 0.8; stroke-linecap: square"/>
     </g>
     <g id="line2d_24">
      <g>
       <use xlink:href="#mb82169aad6" x="38.99774" y="291.486774" style="stroke: #000000; stroke-width: 0.8"/>
      </g>
     </g>
     <g id="text_13">
      <!-- 10 -->
      <g transform="translate(18.00024 295.665485) scale(0.11 -0.11)">
       <use xlink:href="#DejaVuSans-14"/>
       <use xlink:href="#DejaVuSans-13" transform="translate(63.625 0)"/>
      </g>
     </g>
    </g>
    <g id="ytick_3">
     <g id="line2d_25">
      <path d="M 38.99774 247.192771 
L 857.500385 247.192771 
" clip-path="url(#pa9be0628db)" style="fill: none; stroke: #b0b0b0; stroke-opacity: 0.18; stroke-width: 0.8; stroke-linecap: square"/>
     </g>
     <g id="line2d_26">
      <g>
       <use xlink:href="#mb82169aad6" x="38.99774" y="247.192771" style="stroke: #000000; stroke-width: 0.8"/>
      </g>
     </g>
     <g id="text_14">
      <!-- 20 -->
      <g transform="translate(18.00024 251.371482) scale(0.11 -0.11)">
       <use xlink:href="#DejaVuSans-15"/>
       <use xlink:href="#DejaVuSans-13" transform="translate(63.625 0)"/>
      </g>
     </g>
    </g>
    <g id="ytick_4">
     <g id="line2d_27">
      <path d="M 38.99774 202.898767 
L 857.500385 202.898767 
" clip-path="url(#pa9be0628db)" style="fill: none; stroke: #b0b0b0; stroke-opacity: 0.18; stroke-width: 0.8; stroke-linecap: square"/>
     </g>
     <g id="line2d_28">
      <g>
       <use xlink:href="#mb82169aad6" x="38.99774" y="202.898767" style="stroke: #000000; stroke-width: 0.8"/>
      </g>
     </g>
     <g id="text_15">
      <!-- 30 -->
      <g transform="translate(18.00024 207.077478) scale(0.11 -0.11)">
       <use xlink:href="#DejaVuSans-16"/>
       <use xlink:href="#DejaVuSans-13" transform="translate(63.625 0)"/>
      </g>
     </g>
    </g>
    <g id="ytick_5">
     <g id="line2d_29">
      <path d="M 38.99774 158.604763 
L 857.500385 158.604763 
" clip-path="url(#pa9be0628db)" style="fill: none; stroke: #b0b0b0; stroke-opacity: 0.18; stroke-width: 0.8; stroke-linecap: square"/>
     </g>
     <g id="line2d_30">
      <g>
       <use xlink:href="#mb82169aad6" x="38.99774" y="158.604763" style="stroke: #000000; stroke-width: 0.8"/>
      </g>
     </g>
     <g id="text_16">
      <!-- 40 -->
      <g transform="translate(18.00024 162.783474) scale(0.11 -0.11)">
       <use xlink:href="#DejaVuSans-17"/>
       <use xlink:href="#DejaVuSans-13" transform="translate(63.625 0)"/>
      </g>
     </g>
    </g>
    <g id="ytick_6">
     <g id="line2d_31">
      <path d="M 38.99774 114.310759 
L 857.500385 114.310759 
" clip-path="url(#pa9be0628db)" style="fill: none; stroke: #b0b0b0; stroke-opacity: 0.18; stroke-width: 0.8; stroke-linecap: square"/>
     </g>
     <g id="line2d_32">
      <g>
       <use xlink:href="#mb82169aad6" x="38.99774" y="114.310759" style="stroke: #000000; stroke-width: 0.8"/>
      </g>
     </g>
     <g id="text_17">
      <!-- 50 -->
      <g transform="translate(18.00024 118.48947) scale(0.11 -0.11)">
       <use xlink:href="#DejaVuSans-18"/>
       <use xlink:href="#DejaVuSans-13" transform="translate(63.625 0)"/>
      </g>
     </g>
    </g>
    <g id="ytick_7">
     <g id="line2d_33">
      <path d="M 38.99774 70.016756 
L 857.500385 70.016756 
" clip-path="url(#pa9be0628db)" style="fill: none; stroke: #b0b0b0; stroke-opacity: 0.18; stroke-width: 0.8; stroke-linecap: square"/>
     </g>
     <g id="line2d_34">
      <g>
       <use xlink:href="#mb82169aad6" x="38.99774" y="70.016756" style="stroke: #000000; stroke-width: 0.8"/>
      </g>
     </g>
     <g id="text_18">
      <!-- 60 -->
      <g transform="translate(18.00024 74.195467) scale(0.11 -0.11)">
       <use xlink:href="#DejaVuSans-19"/>
       <use xlink:href="#DejaVuSans-13" transform="translate(63.625 0)"/>
      </g>
     </g>
    </g>
    <g id="ytick_8">
     <g id="line2d_35">
      <path d="M 38.99774 25.722752 
L 857.500385 25.722752 
" clip-path="url(#pa9be0628db)" style="fill: none; stroke: #b0b0b0; stroke-opacity: 0.18; stroke-width: 0.8; stroke-linecap: square"/>
     </g>
     <g id="line2d_36">
      <g>
       <use xlink:href="#mb82169aad6" x="38.99774" y="25.722752" style="stroke: #000000; stroke-width: 0.8"/>
      </g>
     </g>
     <g id="text_19">
      <!-- 70 -->
      <g transform="translate(18.00024 29.901463) scale(0.11 -0.11)">
       <use xlink:href="#DejaVuSans-1a"/>
       <use xlink:href="#DejaVuSans-13" transform="translate(63.625 0)"/>
      </g>
     </g>
    </g>
    <g id="text_20">
     <!-- °F -->
     <g transform="translate(11.357662 196.008663) rotate(-90) scale(0.11 -0.11)">
      <defs>
       <path id="DejaVuSans-72" d="M 1600 4347 
Q 1350 4347 1178 4173 
Q 1006 4000 1006 3750 
Q 1006 3503 1178 3333 
Q 1350 3163 1600 3163 
Q 1850 3163 2022 3333 
Q 2194 3503 2194 3750 
Q 2194 3997 2020 4172 
Q 1847 4347 1600 4347 
z
M 1600 4750 
Q 1800 4750 1984 4673 
Q 2169 4597 2303 4453 
Q 2447 4313 2519 4134 
Q 2591 3956 2591 3750 
Q 2591 3338 2302 3052 
Q 2013 2766 1594 2766 
Q 1172 2766 890 3047 
Q 609 3328 609 3750 
Q 609 4169 896 4459 
Q 1184 4750 1600 4750 
z
" transform="scale(0.015625)"/>
       <path id="DejaVuSans-29" d="M 628 4666 
L 3309 4666 
L 3309 4134 
L 1259 4134 
L 1259 2759 
L 3109 2759 
L 3109 2228 
L 1259 2228 
L 1259 0 
L 628 0 
L 628 4666 
z
" transform="scale(0.015625)"/>
      </defs>
      <use xlink:href="#DejaVuSans-72"/>
      <use xlink:href="#DejaVuSans-29" transform="translate(50 0)"/>
     </g>
    </g>
   </g>
   <g id="line2d_37">
    <path d="M 38.99774 34.581553 
L 126.153114 34.581553 
L 129.942478 42.188883 
L 133.731842 45.846233 
L 137.521207 47.152999 
L 145.099935 49.442238 
L 148.889299 50.485198 
L 152.678663 51.199533 
L 156.468027 51.717632 
L 164.046755 52.428742 
L 171.625483 52.903877 
L 182.993576 53.449754 
L 201.940396 54.201968 
L 220.887217 55.417784 
L 254.991494 57.667589 
L 262.570222 57.792426 
L 273.938314 57.584235 
L 285.306406 57.274881 
L 292.885135 57.471118 
L 308.042591 58.216765 
L 338.357504 59.675959 
L 345.936232 59.822901 
L 357.304324 59.639343 
L 368.672416 59.374604 
L 376.251145 59.143957 
L 387.619237 59.155985 
L 410.355422 59.58237 
L 433.091606 60.01313 
L 444.459698 59.803431 
L 463.406519 59.296636 
L 474.774611 59.296897 
L 493.721432 59.609665 
L 524.036344 60.229112 
L 531.615073 60.047929 
L 542.983165 59.478889 
L 554.351257 58.954901 
L 565.71935 58.894388 
L 584.66617 59.112778 
L 618.770447 59.453947 
L 626.349175 59.284833 
L 637.717267 58.866251 
L 649.08536 58.753426 
L 660.453452 58.81823 
L 690.768365 59.46092 
L 702.136457 59.712094 
L 709.715185 59.632436 
L 740.030098 58.184886 
L 747.608826 58.160294 
L 758.976918 58.429354 
L 762.766283 58.531875 
L 766.555647 47.863517 
L 770.345011 43.861373 
L 774.134375 42.203798 
L 777.923739 40.823782 
L 781.713103 39.632683 
L 785.502467 38.59345 
L 793.081195 36.877352 
L 800.659924 35.435774 
L 804.449288 34.79124 
L 808.238652 34.581555 
L 853.711021 34.581553 
L 853.711021 34.581553 
" clip-path="url(#pa9be0628db)" style="fill: none; stroke: #64748b; stroke-width: 2; stroke-linecap: square"/>
   </g>
   <g id="line2d_38">
    <path d="M 38.99774 34.581553 
L 126.153114 34.581553 
L 129.942478 109.151849 
L 133.731842 115.234989 
L 137.521207 95.573187 
L 141.310571 78.112839 
L 145.099935 79.110907 
L 148.889299 75.221904 
L 152.678663 75.65574 
L 156.468027 76.433892 
L 167.836119 77.236874 
L 171.625483 77.042577 
L 175.414848 77.29362 
L 179.204212 77.823971 
L 182.993576 78.240549 
L 186.78294 76.718387 
L 190.572304 77.573693 
L 194.361668 80.387566 
L 198.151032 82.392757 
L 205.72976 85.672452 
L 220.887217 91.844051 
L 239.834037 99.283951 
L 243.623401 100.750977 
L 247.412765 102.064029 
L 251.202129 102.500251 
L 254.991494 101.577226 
L 258.780858 99.312937 
L 262.570222 97.64112 
L 266.359586 96.216469 
L 270.14895 94.562712 
L 273.938314 93.039071 
L 277.727678 92.170713 
L 281.517042 93.653224 
L 285.306406 96.944635 
L 289.09577 98.971166 
L 292.885135 100.603273 
L 300.463863 103.519122 
L 304.253227 104.898845 
L 311.831955 107.271958 
L 319.410683 109.347799 
L 326.989411 111.218846 
L 338.357504 113.733577 
L 345.936232 111.865045 
L 349.725596 110.407987 
L 353.51496 108.81946 
L 357.304324 107.434333 
L 361.093688 105.820135 
L 364.883052 103.369306 
L 368.672416 102.061992 
L 372.461781 103.26376 
L 376.251145 105.412075 
L 380.040509 106.617211 
L 387.619237 108.253442 
L 395.197965 109.69819 
L 406.566057 111.670666 
L 417.93415 113.444612 
L 425.512878 114.485304 
L 429.302242 114.686305 
L 433.091606 113.80575 
L 436.88097 111.803237 
L 440.670334 109.975719 
L 448.249063 108.487955 
L 452.038427 106.137665 
L 455.827791 105.593866 
L 459.617155 106.000982 
L 463.406519 106.634002 
L 467.195883 108.318655 
L 470.985247 109.481017 
L 478.563975 111.091723 
L 489.932068 112.705611 
L 512.668252 116.577829 
L 516.457616 117.019673 
L 520.24698 116.869362 
L 524.036344 114.857792 
L 527.825709 112.657923 
L 531.615073 110.164419 
L 535.404437 107.867051 
L 542.983165 103.98698 
L 546.772529 102.536042 
L 550.561893 103.638703 
L 554.351257 105.103145 
L 558.140621 106.23036 
L 561.929985 106.987502 
L 569.508714 107.982506 
L 577.087442 109.210207 
L 584.66617 110.005231 
L 596.034262 110.929141 
L 607.402355 111.594196 
L 611.191719 111.707321 
L 614.981083 111.383647 
L 618.770447 110.234377 
L 622.559811 108.351604 
L 626.349175 105.962401 
L 630.138539 104.082275 
L 633.927903 103.986344 
L 637.717267 104.415515 
L 641.506631 104.145057 
L 645.295996 104.495225 
L 649.08536 105.854249 
L 652.874724 106.872925 
L 671.821544 110.593537 
L 690.768365 113.583649 
L 698.347093 114.67645 
L 702.136457 114.53036 
L 705.925821 111.231232 
L 709.715185 107.777221 
L 713.504549 105.40044 
L 717.293913 104.37558 
L 721.083278 103.647724 
L 724.872642 101.932042 
L 728.662006 99.720098 
L 732.45137 98.005401 
L 736.240734 98.978067 
L 740.030098 101.512674 
L 743.819462 102.954964 
L 751.39819 105.173591 
L 758.976918 107.29717 
L 762.766283 108.118758 
L 766.555647 34.978475 
L 770.345011 34.582009 
L 853.711021 34.581553 
L 853.711021 34.581553 
" clip-path="url(#pa9be0628db)" style="fill: none; stroke: #087e8b; stroke-width: 2; stroke-linecap: square"/>
   </g>
   <g id="line2d_39">
    <path d="M 38.99774 34.581553 
L 126.153114 34.581553 
L 129.942478 98.453981 
L 133.731842 94.832597 
L 137.521207 79.414486 
L 141.310571 76.105065 
L 145.099935 92.247313 
L 148.889299 75.006348 
L 152.678663 75.364895 
L 156.468027 76.126672 
L 167.836119 77.046867 
L 171.625483 76.913263 
L 175.414848 77.103629 
L 182.993576 78.069362 
L 186.78294 76.924659 
L 190.572304 77.380348 
L 194.361668 79.932109 
L 198.151032 81.950846 
L 205.72976 85.289981 
L 220.887217 91.547958 
L 243.623401 100.631026 
L 247.412765 101.993244 
L 251.202129 102.574517 
L 254.991494 101.879194 
L 258.780858 100.02125 
L 262.570222 98.583406 
L 266.359586 97.281642 
L 273.938314 93.98952 
L 277.727678 93.005169 
L 281.517042 93.948247 
L 285.306406 96.921983 
L 289.09577 99.004332 
L 292.885135 100.700321 
L 300.463863 103.716228 
L 304.253227 105.145204 
L 311.831955 107.635044 
L 319.410683 109.834998 
L 326.989411 111.82725 
L 338.357504 114.478621 
L 342.146868 113.832773 
L 345.936232 112.969436 
L 349.725596 111.678354 
L 353.51496 110.158965 
L 357.304324 108.833862 
L 361.093688 107.36203 
L 364.883052 105.128572 
L 368.672416 103.667504 
L 372.461781 104.368898 
L 376.251145 106.327165 
L 380.040509 107.602369 
L 387.619237 109.335727 
L 395.197965 110.836728 
L 406.566057 112.871534 
L 417.93415 114.709032 
L 425.512878 115.800373 
L 429.302242 116.012701 
L 433.091606 115.325014 
L 440.670334 111.740794 
L 444.459698 110.823101 
L 448.249063 110.093588 
L 452.038427 108.110975 
L 455.827791 107.152454 
L 459.617155 107.387175 
L 463.406519 107.897182 
L 467.195883 109.419522 
L 470.985247 110.641582 
L 478.563975 112.326057 
L 482.353339 112.907426 
L 486.142703 113.375704 
L 512.668252 117.932131 
L 516.457616 118.421246 
L 520.24698 118.27316 
L 524.036344 116.550103 
L 527.825709 114.480672 
L 531.615073 112.162426 
L 535.404437 109.981607 
L 542.983165 105.951361 
L 546.772529 104.266361 
L 550.561893 104.850538 
L 554.351257 106.265326 
L 558.140621 107.437309 
L 561.929985 108.259765 
L 580.876806 111.024062 
L 592.244898 112.075676 
L 603.61299 112.860037 
L 611.191719 113.236783 
L 614.981083 112.982777 
L 618.770447 111.962154 
L 622.559811 110.203612 
L 626.349175 107.992537 
L 630.138539 105.942619 
L 633.927903 105.325554 
L 637.717267 105.67713 
L 641.506631 105.565441 
L 645.295996 105.802361 
L 649.08536 107.03855 
L 652.874724 108.094953 
L 668.03218 111.208312 
L 679.400272 113.102662 
L 694.557729 115.45123 
L 698.347093 115.987612 
L 702.136457 115.826393 
L 705.925821 112.951121 
L 709.715185 109.672724 
L 713.504549 107.347973 
L 717.293913 106.201834 
L 721.083278 105.341259 
L 724.872642 103.743936 
L 728.662006 101.560751 
L 732.45137 99.811476 
L 736.240734 100.215202 
L 740.030098 102.422934 
L 743.819462 103.907367 
L 747.608826 105.099117 
L 758.976918 108.307115 
L 762.766283 109.152218 
L 766.555647 34.950714 
L 770.345011 34.581776 
L 853.711021 34.581553 
L 853.711021 34.581553 
" clip-path="url(#pa9be0628db)" style="fill: none; stroke: #d18b18; stroke-width: 2; stroke-linecap: square"/>
   </g>
   <g id="line2d_40">
    <path d="M 38.99774 34.581553 
L 126.153114 34.581553 
L 129.942478 98.841564 
L 133.731842 79.567931 
L 137.521207 76.459735 
L 141.310571 76.826462 
L 145.099935 81.495771 
L 148.889299 77.739782 
L 152.678663 78.147653 
L 156.468027 78.832574 
L 167.836119 79.529078 
L 171.625483 79.32067 
L 175.414848 79.500861 
L 182.993576 80.492534 
L 186.78294 79.755971 
L 190.572304 80.12239 
L 194.361668 82.443013 
L 198.151032 84.554993 
L 205.72976 88.063494 
L 217.097853 92.952841 
L 236.044673 100.733693 
L 243.623401 103.784756 
L 247.412765 105.158268 
L 251.202129 105.716739 
L 254.991494 104.923716 
L 258.780858 102.865611 
L 262.570222 101.274419 
L 270.14895 98.549865 
L 273.938314 97.410089 
L 277.727678 96.708458 
L 281.517042 97.343783 
L 285.306406 99.924449 
L 289.09577 102.058761 
L 292.885135 103.814038 
L 300.463863 106.903168 
L 304.253227 108.333344 
L 311.831955 110.783191 
L 319.410683 112.917084 
L 326.989411 114.832749 
L 338.357504 117.365999 
L 342.146868 116.644172 
L 345.936232 115.652428 
L 349.725596 114.091906 
L 353.51496 112.301819 
L 361.093688 109.360806 
L 364.883052 107.489454 
L 368.672416 106.218776 
L 372.461781 106.602082 
L 376.251145 108.322172 
L 380.040509 109.645583 
L 387.619237 111.507207 
L 395.197965 113.078449 
L 402.776693 114.510569 
L 414.144786 116.433209 
L 425.512878 118.102968 
L 429.302242 118.269838 
L 433.091606 117.540907 
L 440.670334 113.681029 
L 444.459698 112.68834 
L 448.249063 111.827165 
L 452.038427 109.953904 
L 455.827791 109.23424 
L 459.617155 109.416673 
L 463.406519 110.000772 
L 467.195883 111.450126 
L 470.985247 112.736011 
L 478.563975 114.546667 
L 493.721432 117.000228 
L 512.668252 120.287984 
L 516.457616 120.736074 
L 520.24698 120.489007 
L 524.036344 118.717984 
L 527.825709 116.504336 
L 531.615073 113.9188 
L 535.404437 111.531245 
L 539.193801 109.503246 
L 542.983165 107.601474 
L 546.772529 106.214138 
L 550.561893 106.61859 
L 558.140621 109.228721 
L 561.929985 110.126443 
L 569.508714 111.280343 
L 573.298078 112.017644 
L 577.087442 112.615204 
L 584.66617 113.44728 
L 596.034262 114.385696 
L 607.402355 115.04957 
L 611.191719 115.161117 
L 614.981083 114.872729 
L 618.770447 113.750708 
L 622.559811 111.818863 
L 626.349175 109.338068 
L 630.138539 107.280487 
L 633.927903 106.827321 
L 637.717267 107.167783 
L 641.506631 107.224468 
L 645.295996 107.555623 
L 652.874724 109.892153 
L 668.03218 113.315288 
L 679.400272 115.289432 
L 690.768365 117.102474 
L 698.347093 118.223023 
L 702.136457 117.901413 
L 705.925821 114.988217 
L 709.715185 111.556232 
L 713.504549 109.029751 
L 717.293913 107.812335 
L 721.083278 106.957689 
L 724.872642 105.430282 
L 728.662006 103.623595 
L 732.45137 102.288197 
L 736.240734 102.463869 
L 740.030098 104.359954 
L 743.819462 105.944159 
L 747.608826 107.24726 
L 758.976918 110.673629 
L 762.766283 111.545865 
L 766.555647 34.963509 
L 770.345011 34.58176 
L 853.711021 34.581553 
L 853.711021 34.581553 
" clip-path="url(#pa9be0628db)" style="fill: none; stroke: #a44a62; stroke-width: 2; stroke-linecap: square"/>
   </g>
   <g id="line2d_41">
    <path d="M 38.99774 34.581553 
L 126.153114 34.581553 
L 129.942478 90.244527 
L 133.731842 86.408859 
L 137.521207 84.095816 
L 141.310571 82.324783 
L 145.099935 85.935858 
L 148.889299 74.994345 
L 152.678663 75.441878 
L 156.468027 76.215372 
L 164.046755 76.962193 
L 167.836119 77.246449 
L 171.625483 77.152906 
L 175.414848 77.365145 
L 182.993576 78.211379 
L 186.78294 77.110309 
L 190.572304 77.638848 
L 194.361668 80.024755 
L 198.151032 81.984054 
L 205.72976 85.30953 
L 220.887217 91.564378 
L 243.623401 100.654952 
L 247.412765 102.052165 
L 251.202129 102.743608 
L 254.991494 102.214408 
L 258.780858 100.49096 
L 262.570222 99.0456 
L 266.359586 97.757553 
L 273.938314 94.507903 
L 277.727678 93.513484 
L 281.517042 94.376402 
L 285.306406 97.108761 
L 289.09577 99.112834 
L 292.885135 100.793323 
L 300.463863 103.82301 
L 304.253227 105.247338 
L 311.831955 107.737433 
L 319.410683 109.946447 
L 326.989411 111.952044 
L 338.357504 114.685515 
L 342.146868 114.197861 
L 345.936232 113.387218 
L 349.725596 112.094422 
L 353.51496 110.553776 
L 357.304324 109.266135 
L 361.093688 107.841574 
L 364.883052 105.663877 
L 368.672416 104.239821 
L 372.461781 104.890607 
L 376.251145 106.717077 
L 380.040509 107.950202 
L 387.619237 109.705572 
L 395.197965 111.222179 
L 406.566057 113.286992 
L 417.93415 115.147026 
L 425.512878 116.258026 
L 429.302242 116.53525 
L 433.091606 115.934889 
L 440.670334 112.53924 
L 444.459698 111.5633 
L 448.249063 110.76817 
L 452.038427 108.860638 
L 455.827791 107.929799 
L 459.617155 108.063541 
L 463.406519 108.525238 
L 467.195883 109.990808 
L 470.985247 111.161208 
L 478.563975 112.844598 
L 493.721432 115.252669 
L 512.668252 118.460809 
L 516.457616 118.928106 
L 520.24698 118.866385 
L 524.036344 117.364784 
L 527.825709 115.383011 
L 535.404437 110.846907 
L 539.193801 108.883519 
L 542.983165 106.793786 
L 546.772529 105.125829 
L 550.561893 105.624465 
L 554.351257 106.897659 
L 558.140621 108.029338 
L 561.929985 108.835939 
L 569.508714 109.916325 
L 573.298078 110.604197 
L 577.087442 111.178674 
L 584.66617 112.009792 
L 596.034262 112.979747 
L 607.402355 113.696901 
L 611.191719 113.845961 
L 614.981083 113.641063 
L 618.770447 112.702072 
L 622.559811 111.000237 
L 626.349175 108.800207 
L 630.138539 106.830416 
L 633.927903 106.170623 
L 637.717267 106.409829 
L 641.506631 106.262371 
L 645.295996 106.496343 
L 649.08536 107.65845 
L 652.874724 108.669888 
L 668.03218 111.800213 
L 679.400272 113.668923 
L 694.557729 115.987578 
L 698.347093 116.519469 
L 702.136457 116.428475 
L 705.925821 114.005992 
L 709.715185 110.912591 
L 713.504549 108.462989 
L 717.293913 107.115864 
L 721.083278 106.181831 
L 724.872642 104.527849 
L 728.662006 102.361916 
L 732.45137 100.69332 
L 736.240734 101.03656 
L 740.030098 103.012337 
L 743.819462 104.438754 
L 751.39819 106.713928 
L 758.976918 108.832797 
L 762.766283 109.675912 
L 766.555647 34.897643 
L 770.345011 34.581576 
L 853.711021 34.581553 
L 853.711021 34.581553 
" clip-path="url(#pa9be0628db)" style="fill: none; stroke: #5f5aa2; stroke-width: 2; stroke-linecap: square"/>
   </g>
   <g id="line2d_42">
    <path d="M 38.99774 211.314628 
L 42.787104 198.491513 
L 46.576468 199.288806 
L 50.365832 199.621011 
L 54.155196 199.621011 
L 57.94456 199.155924 
L 61.733925 198.823719 
L 65.523289 203.939676 
L 69.312653 204.803409 
L 73.102017 197.694221 
L 76.891381 191.249444 
L 80.680745 189.256214 
L 84.470109 186.930779 
L 88.259473 187.595189 
L 92.048837 186.930779 
L 95.838201 185.269753 
L 99.627566 190.385711 
L 103.41693 191.249444 
L 107.206294 197.162693 
L 110.995658 202.810179 
L 114.785022 207.926136 
L 118.574386 214.370914 
L 122.36375 220.549927 
L 126.153114 227.260469 
L 129.942478 232.708631 
L 137.521207 244.163742 
L 145.099935 254.898271 
L 156.468027 268.539848 
L 160.257391 270.384342 
L 164.046755 276.148367 
L 167.836119 280.317254 
L 171.625483 282.824498 
L 175.414848 287.457175 
L 179.204212 289.63079 
L 182.993576 281.903889 
L 186.78294 276.435112 
L 190.572304 276.612888 
L 198.151032 292.844796 
L 209.519124 306.586784 
L 213.308488 311.541427 
L 217.097853 316.029623 
L 228.465945 327.226472 
L 236.044673 333.132878 
L 239.834037 335.552021 
L 243.623401 339.165339 
L 247.412765 343.640571 
L 251.202129 345.456289 
L 254.991494 345.609055 
L 258.780858 338.318448 
L 262.570222 330.361397 
L 266.359586 323.398876 
L 270.14895 319.88915 
L 273.938314 317.240969 
L 281.517042 308.74868 
L 285.306406 309.681457 
L 289.09577 311.807789 
L 296.674499 312.066664 
L 300.463863 314.517781 
L 304.253227 314.906664 
L 308.042591 312.635301 
L 311.831955 309.431116 
L 323.200047 297.809036 
L 326.989411 293.46436 
L 330.778775 288.784634 
L 334.56814 289.217985 
L 338.357504 288.651805 
L 342.146868 281.505014 
L 345.936232 272.494891 
L 349.725596 256.372565 
L 353.51496 231.676302 
L 357.304324 218.13905 
L 361.093688 216.558072 
L 364.883052 211.519028 
L 368.672416 205.148002 
L 372.461781 208.341294 
L 376.251145 214.853424 
L 380.040509 216.910771 
L 383.829873 216.97163 
L 387.619237 219.354645 
L 391.408601 221.069951 
L 395.197965 222.516174 
L 398.987329 224.955677 
L 402.776693 226.461652 
L 406.566057 227.764937 
L 410.355422 228.931956 
L 414.144786 229.763375 
L 417.93415 230.1263 
L 429.302242 230.197911 
L 433.091606 225.098947 
L 436.88097 216.342278 
L 440.670334 212.698113 
L 444.459698 210.37931 
L 448.249063 205.930935 
L 452.038427 206.727939 
L 455.827791 208.71742 
L 459.617155 211.035646 
L 463.406519 215.476527 
L 467.195883 222.571596 
L 470.985247 226.208283 
L 474.774611 228.512708 
L 478.563975 230.149288 
L 482.353339 227.795982 
L 486.142703 228.429104 
L 489.932068 231.915783 
L 493.721432 234.13669 
L 497.510796 236.154893 
L 501.30016 238.501936 
L 505.089524 240.380542 
L 508.878888 241.92361 
L 512.668252 242.998275 
L 516.457616 238.156394 
L 520.24698 231.650213 
L 524.036344 224.476368 
L 531.615073 206.796956 
L 535.404437 200.277898 
L 539.193801 193.091273 
L 542.983165 187.031015 
L 546.772529 185.28632 
L 550.561893 185.199579 
L 554.351257 190.225752 
L 558.140621 196.112648 
L 561.929985 197.6779 
L 565.71935 195.253747 
L 569.508714 198.60705 
L 573.298078 204.947325 
L 577.087442 207.2983 
L 580.876806 207.055276 
L 584.66617 205.679993 
L 588.455534 204.434868 
L 592.244898 203.519267 
L 596.034262 201.67085 
L 599.823626 199.620512 
L 603.61299 197.434736 
L 607.402355 196.309505 
L 611.191719 193.852987 
L 614.981083 192.058459 
L 618.770447 189.13206 
L 622.559811 184.675192 
L 626.349175 177.757728 
L 630.138539 171.170241 
L 633.927903 171.822644 
L 637.717267 175.994292 
L 641.506631 182.62218 
L 645.295996 188.915838 
L 649.08536 195.871935 
L 652.874724 202.161703 
L 656.664088 206.323495 
L 660.453452 212.941794 
L 664.242816 221.55157 
L 668.03218 226.904039 
L 671.821544 229.464345 
L 675.610908 231.225774 
L 679.400272 233.11856 
L 683.189637 234.876996 
L 686.979001 235.836731 
L 690.768365 236.927999 
L 694.557729 237.420009 
L 698.347093 237.246379 
L 702.136457 229.1651 
L 705.925821 218.225751 
L 709.715185 209.278587 
L 713.504549 203.12096 
L 717.293913 201.281077 
L 721.083278 203.426795 
L 724.872642 199.791349 
L 728.662006 193.165325 
L 732.45137 196.571222 
L 736.240734 205.491117 
L 740.030098 211.287742 
L 743.819462 217.88118 
L 747.608826 224.141999 
L 751.39819 231.066878 
L 755.187554 239.652497 
L 758.976918 244.517199 
L 762.766283 246.259016 
L 770.345011 247.12633 
L 774.134375 247.923622 
L 777.923739 248.255827 
L 781.713103 248.255827 
L 785.502467 247.79074 
L 789.291831 247.458535 
L 793.081195 247.458535 
L 796.870559 244.668012 
L 800.659924 237.558825 
L 804.449288 228.788612 
L 808.238652 225.134357 
L 812.028016 220.018399 
L 815.81738 211.248187 
L 819.606744 204.803409 
L 823.396108 202.810179 
L 827.185472 207.926136 
L 830.974836 216.696349 
L 834.7642 223.141127 
L 838.553565 230.250314 
L 846.132293 231.911339 
L 849.921657 234.369657 
L 853.711021 235.166949 
L 853.711021 235.166949 
" clip-path="url(#pa9be0628db)" style="fill: none; stroke: #222222; stroke-width: 2; stroke-linecap: square"/>
   </g>
   <g id="patch_4">
    <path d="M 38.99774 361.16043 
L 38.99774 19.030178 
" style="fill: none; stroke: #000000; stroke-width: 0.8; stroke-linejoin: miter; stroke-linecap: square"/>
   </g>
   <g id="patch_5">
    <path d="M 38.99774 361.16043 
L 857.500385 361.16043 
" style="fill: none; stroke: #000000; stroke-width: 0.8; stroke-linejoin: miter; stroke-linecap: square"/>
   </g>
   <g id="text_21">
    <!-- Dry-Bulb Air Temperature -->
    <g transform="translate(364.717813 13.030178) scale(0.132 -0.132)">
     <defs>
      <path id="DejaVuSans-27" d="M 1259 4147 
L 1259 519 
L 2022 519 
Q 2988 519 3436 956 
Q 3884 1394 3884 2338 
Q 3884 3275 3436 3711 
Q 2988 4147 2022 4147 
L 1259 4147 
z
M 628 4666 
L 1925 4666 
Q 3281 4666 3915 4102 
Q 4550 3538 4550 2338 
Q 4550 1131 3912 565 
Q 3275 0 1925 0 
L 628 0 
L 628 4666 
z
" transform="scale(0.015625)"/>
      <path id="DejaVuSans-10" d="M 313 2009 
L 1997 2009 
L 1997 1497 
L 313 1497 
L 313 2009 
z
" transform="scale(0.015625)"/>
      <path id="DejaVuSans-25" d="M 1259 2228 
L 1259 519 
L 2272 519 
Q 2781 519 3026 730 
Q 3272 941 3272 1375 
Q 3272 1813 3026 2020 
Q 2781 2228 2272 2228 
L 1259 2228 
z
M 1259 4147 
L 1259 2741 
L 2194 2741 
Q 2656 2741 2882 2914 
Q 3109 3088 3109 3444 
Q 3109 3797 2882 3972 
Q 2656 4147 2194 4147 
L 1259 4147 
z
M 628 4666 
L 2241 4666 
Q 2963 4666 3353 4366 
Q 3744 4066 3744 3513 
Q 3744 3084 3544 2831 
Q 3344 2578 2956 2516 
Q 3422 2416 3680 2098 
Q 3938 1781 3938 1306 
Q 3938 681 3513 340 
Q 3088 0 2303 0 
L 628 0 
L 628 4666 
z
" transform="scale(0.015625)"/>
      <path id="DejaVuSans-45" d="M 3116 1747 
Q 3116 2381 2855 2742 
Q 2594 3103 2138 3103 
Q 1681 3103 1420 2742 
Q 1159 2381 1159 1747 
Q 1159 1113 1420 752 
Q 1681 391 2138 391 
Q 2594 391 2855 752 
Q 3116 1113 3116 1747 
z
M 1159 2969 
Q 1341 3281 1617 3432 
Q 1894 3584 2278 3584 
Q 2916 3584 3314 3078 
Q 3713 2572 3713 1747 
Q 3713 922 3314 415 
Q 2916 -91 2278 -91 
Q 1894 -91 1617 61 
Q 1341 213 1159 525 
L 1159 0 
L 581 0 
L 581 4863 
L 1159 4863 
L 1159 2969 
z
" transform="scale(0.015625)"/>
      <path id="DejaVuSans-24" d="M 2188 4044 
L 1331 1722 
L 3047 1722 
L 2188 4044 
z
M 1831 4666 
L 2547 4666 
L 4325 0 
L 3669 0 
L 3244 1197 
L 1141 1197 
L 716 0 
L 50 0 
L 1831 4666 
z
" transform="scale(0.015625)"/>
      <path id="DejaVuSans-37" d="M -19 4666 
L 3928 4666 
L 3928 4134 
L 2272 4134 
L 2272 0 
L 1638 0 
L 1638 4134 
L -19 4134 
L -19 4666 
z
" transform="scale(0.015625)"/>
      <path id="DejaVuSans-48" d="M 3597 1894 
L 3597 1613 
L 953 1613 
Q 991 1019 1311 708 
Q 1631 397 2203 397 
Q 2534 397 2845 478 
Q 3156 559 3463 722 
L 3463 178 
Q 3153 47 2828 -22 
Q 2503 -91 2169 -91 
Q 1331 -91 842 396 
Q 353 884 353 1716 
Q 353 2575 817 3079 
Q 1281 3584 2069 3584 
Q 2775 3584 3186 3129 
Q 3597 2675 3597 1894 
z
M 3022 2063 
Q 3016 2534 2758 2815 
Q 2500 3097 2075 3097 
Q 1594 3097 1305 2825 
Q 1016 2553 972 2059 
L 3022 2063 
z
" transform="scale(0.015625)"/>
      <path id="DejaVuSans-53" d="M 1159 525 
L 1159 -1331 
L 581 -1331 
L 581 3500 
L 1159 3500 
L 1159 2969 
Q 1341 3281 1617 3432 
Q 1894 3584 2278 3584 
Q 2916 3584 3314 3078 
Q 3713 2572 3713 1747 
Q 3713 922 3314 415 
Q 2916 -91 2278 -91 
Q 1894 -91 1617 61 
Q 1341 213 1159 525 
z
M 3116 1747 
Q 3116 2381 2855 2742 
Q 2594 3103 2138 3103 
Q 1681 3103 1420 2742 
Q 1159 2381 1159 1747 
Q 1159 1113 1420 752 
Q 1681 391 2138 391 
Q 2594 391 2855 752 
Q 3116 1113 3116 1747 
z
" transform="scale(0.015625)"/>
     </defs>
     <use xlink:href="#DejaVuSans-27"/>
     <use xlink:href="#DejaVuSans-55" transform="translate(77 0)"/>
     <use xlink:href="#DejaVuSans-5c" transform="translate(118.109375 0)"/>
     <use xlink:href="#DejaVuSans-10" transform="translate(175.546875 0)"/>
     <use xlink:href="#DejaVuSans-25" transform="translate(208.0625 0)"/>
     <use xlink:href="#DejaVuSans-58" transform="translate(276.671875 0)"/>
     <use xlink:href="#DejaVuSans-4f" transform="translate(340.046875 0)"/>
     <use xlink:href="#DejaVuSans-45" transform="translate(367.828125 0)"/>
     <use xlink:href="#DejaVuSans-3" transform="translate(431.3125 0)"/>
     <use xlink:href="#DejaVuSans-24" transform="translate(463.09375 0)"/>
     <use xlink:href="#DejaVuSans-4c" transform="translate(531.5 0)"/>
     <use xlink:href="#DejaVuSans-55" transform="translate(559.28125 0)"/>
     <use xlink:href="#DejaVuSans-3" transform="translate(600.390625 0)"/>
     <use xlink:href="#DejaVuSans-37" transform="translate(632.171875 0)"/>
     <use xlink:href="#DejaVuSans-48" transform="translate(676.265625 0)"/>
     <use xlink:href="#DejaVuSans-50" transform="translate(737.796875 0)"/>
     <use xlink:href="#DejaVuSans-53" transform="translate(835.203125 0)"/>
     <use xlink:href="#DejaVuSans-48" transform="translate(898.6875 0)"/>
     <use xlink:href="#DejaVuSans-55" transform="translate(960.21875 0)"/>
     <use xlink:href="#DejaVuSans-44" transform="translate(1001.328125 0)"/>
     <use xlink:href="#DejaVuSans-57" transform="translate(1062.609375 0)"/>
     <use xlink:href="#DejaVuSans-58" transform="translate(1101.8125 0)"/>
     <use xlink:href="#DejaVuSans-55" transform="translate(1165.1875 0)"/>
     <use xlink:href="#DejaVuSans-48" transform="translate(1204.09375 0)"/>
    </g>
   </g>
   <g id="legend_1">
    <g id="patch_6">
     <path d="M 267.992031 429.078406 
L 287.992031 429.078406 
L 287.992031 422.078406 
L 267.992031 422.078406 
z
" style="fill: #e2e8f0; opacity: 0.75; stroke: #e2e8f0; stroke-linejoin: miter"/>
    </g>
    <g id="text_22">
     <!-- Intended 7-day outage -->
     <g transform="translate(295.992031 429.078406) scale(0.1 -0.1)">
      <defs>
       <path id="DejaVuSans-2c" d="M 628 4666 
L 1259 4666 
L 1259 0 
L 628 0 
L 628 4666 
z
" transform="scale(0.015625)"/>
       <path id="DejaVuSans-4a" d="M 2906 1791 
Q 2906 2416 2648 2759 
Q 2391 3103 1925 3103 
Q 1463 3103 1205 2759 
Q 947 2416 947 1791 
Q 947 1169 1205 825 
Q 1463 481 1925 481 
Q 2391 481 2648 825 
Q 2906 1169 2906 1791 
z
M 3481 434 
Q 3481 -459 3084 -895 
Q 2688 -1331 1869 -1331 
Q 1566 -1331 1297 -1286 
Q 1028 -1241 775 -1147 
L 775 -588 
Q 1028 -725 1275 -790 
Q 1522 -856 1778 -856 
Q 2344 -856 2625 -561 
Q 2906 -266 2906 331 
L 2906 616 
Q 2728 306 2450 153 
Q 2172 0 1784 0 
Q 1141 0 747 490 
Q 353 981 353 1791 
Q 353 2603 747 3093 
Q 1141 3584 1784 3584 
Q 2172 3584 2450 3431 
Q 2728 3278 2906 2969 
L 2906 3500 
L 3481 3500 
L 3481 434 
z
" transform="scale(0.015625)"/>
      </defs>
      <use xlink:href="#DejaVuSans-2c"/>
      <use xlink:href="#DejaVuSans-51" transform="translate(29.5 0)"/>
      <use xlink:href="#DejaVuSans-57" transform="translate(92.875 0)"/>
      <use xlink:href="#DejaVuSans-48" transform="translate(132.078125 0)"/>
      <use xlink:href="#DejaVuSans-51" transform="translate(193.609375 0)"/>
      <use xlink:href="#DejaVuSans-47" transform="translate(256.984375 0)"/>
      <use xlink:href="#DejaVuSans-48" transform="translate(320.46875 0)"/>
      <use xlink:href="#DejaVuSans-47" transform="translate(382 0)"/>
      <use xlink:href="#DejaVuSans-3" transform="translate(445.484375 0)"/>
      <use xlink:href="#DejaVuSans-1a" transform="translate(477.265625 0)"/>
      <use xlink:href="#DejaVuSans-10" transform="translate(540.890625 0)"/>
      <use xlink:href="#DejaVuSans-47" transform="translate(576.96875 0)"/>
      <use xlink:href="#DejaVuSans-44" transform="translate(640.453125 0)"/>
      <use xlink:href="#DejaVuSans-5c" transform="translate(701.734375 0)"/>
      <use xlink:href="#DejaVuSans-3" transform="translate(760.921875 0)"/>
      <use xlink:href="#DejaVuSans-52" transform="translate(792.703125 0)"/>
      <use xlink:href="#DejaVuSans-58" transform="translate(853.890625 0)"/>
      <use xlink:href="#DejaVuSans-57" transform="translate(917.265625 0)"/>
      <use xlink:href="#DejaVuSans-44" transform="translate(956.46875 0)"/>
      <use xlink:href="#DejaVuSans-4a" transform="translate(1017.75 0)"/>
      <use xlink:href="#DejaVuSans-48" transform="translate(1081.234375 0)"/>
     </g>
    </g>
    <g id="line2d_43">
     <path d="M 267.992031 440.579187 
L 277.992031 440.579187 
L 287.992031 440.579187 
" style="fill: none; stroke: #64748b; stroke-width: 2; stroke-linecap: square"/>
    </g>
    <g id="text_23">
     <!-- LEVEL_00 -->
     <g transform="translate(295.992031 444.079187) scale(0.1 -0.1)">
      <defs>
       <path id="DejaVuSans-2f" d="M 628 4666 
L 1259 4666 
L 1259 531 
L 3531 531 
L 3531 0 
L 628 0 
L 628 4666 
z
" transform="scale(0.015625)"/>
       <path id="DejaVuSans-28" d="M 628 4666 
L 3578 4666 
L 3578 4134 
L 1259 4134 
L 1259 2753 
L 3481 2753 
L 3481 2222 
L 1259 2222 
L 1259 531 
L 3634 531 
L 3634 0 
L 628 0 
L 628 4666 
z
" transform="scale(0.015625)"/>
       <path id="DejaVuSans-39" d="M 1831 0 
L 50 4666 
L 709 4666 
L 2188 738 
L 3669 4666 
L 4325 4666 
L 2547 0 
L 1831 0 
z
" transform="scale(0.015625)"/>
       <path id="DejaVuSans-42" d="M 3263 -1063 
L 3263 -1509 
L -63 -1509 
L -63 -1063 
L 3263 -1063 
z
" transform="scale(0.015625)"/>
      </defs>
      <use xlink:href="#DejaVuSans-2f"/>
      <use xlink:href="#DejaVuSans-28" transform="translate(55.71875 0)"/>
      <use xlink:href="#DejaVuSans-39" transform="translate(118.90625 0)"/>
      <use xlink:href="#DejaVuSans-28" transform="translate(187.3125 0)"/>
      <use xlink:href="#DejaVuSans-2f" transform="translate(250.5 0)"/>
      <use xlink:href="#DejaVuSans-42" transform="translate(306.21875 0)"/>
      <use xlink:href="#DejaVuSans-13" transform="translate(356.21875 0)"/>
      <use xlink:href="#DejaVuSans-13" transform="translate(419.84375 0)"/>
     </g>
    </g>
    <g id="line2d_44">
     <path d="M 267.992031 455.579968 
L 277.992031 455.579968 
L 287.992031 455.579968 
" style="fill: none; stroke: #087e8b; stroke-width: 2; stroke-linecap: square"/>
    </g>
    <g id="text_24">
     <!-- LEVEL_01 -->
     <g transform="translate(295.992031 459.079968) scale(0.1 -0.1)">
      <use xlink:href="#DejaVuSans-2f"/>
      <use xlink:href="#DejaVuSans-28" transform="translate(55.71875 0)"/>
      <use xlink:href="#DejaVuSans-39" transform="translate(118.90625 0)"/>
      <use xlink:href="#DejaVuSans-28" transform="translate(187.3125 0)"/>
      <use xlink:href="#DejaVuSans-2f" transform="translate(250.5 0)"/>
      <use xlink:href="#DejaVuSans-42" transform="translate(306.21875 0)"/>
      <use xlink:href="#DejaVuSans-13" transform="translate(356.21875 0)"/>
      <use xlink:href="#DejaVuSans-14" transform="translate(419.84375 0)"/>
     </g>
    </g>
    <g id="line2d_45">
     <path d="M 430.268594 425.578406 
L 440.268594 425.578406 
L 450.268594 425.578406 
" style="fill: none; stroke: #d18b18; stroke-width: 2; stroke-linecap: square"/>
    </g>
    <g id="text_25">
     <!-- LEVEL_02.A -->
     <g transform="translate(458.268594 429.078406) scale(0.1 -0.1)">
      <defs>
       <path id="DejaVuSans-11" d="M 684 794 
L 1344 794 
L 1344 0 
L 684 0 
L 684 794 
z
" transform="scale(0.015625)"/>
      </defs>
      <use xlink:href="#DejaVuSans-2f"/>
      <use xlink:href="#DejaVuSans-28" transform="translate(55.71875 0)"/>
      <use xlink:href="#DejaVuSans-39" transform="translate(118.90625 0)"/>
      <use xlink:href="#DejaVuSans-28" transform="translate(187.3125 0)"/>
      <use xlink:href="#DejaVuSans-2f" transform="translate(250.5 0)"/>
      <use xlink:href="#DejaVuSans-42" transform="translate(306.21875 0)"/>
      <use xlink:href="#DejaVuSans-13" transform="translate(356.21875 0)"/>
      <use xlink:href="#DejaVuSans-15" transform="translate(419.84375 0)"/>
      <use xlink:href="#DejaVuSans-11" transform="translate(483.46875 0)"/>
      <use xlink:href="#DejaVuSans-24" transform="translate(515.25 0)"/>
     </g>
    </g>
    <g id="line2d_46">
     <path d="M 430.268594 440.579187 
L 440.268594 440.579187 
L 450.268594 440.579187 
" style="fill: none; stroke: #a44a62; stroke-width: 2; stroke-linecap: square"/>
    </g>
    <g id="text_26">
     <!-- LEVEL_02.B -->
     <g transform="translate(458.268594 444.079187) scale(0.1 -0.1)">
      <use xlink:href="#DejaVuSans-2f"/>
      <use xlink:href="#DejaVuSans-28" transform="translate(55.71875 0)"/>
      <use xlink:href="#DejaVuSans-39" transform="translate(118.90625 0)"/>
      <use xlink:href="#DejaVuSans-28" transform="translate(187.3125 0)"/>
      <use xlink:href="#DejaVuSans-2f" transform="translate(250.5 0)"/>
      <use xlink:href="#DejaVuSans-42" transform="translate(306.21875 0)"/>
      <use xlink:href="#DejaVuSans-13" transform="translate(356.21875 0)"/>
      <use xlink:href="#DejaVuSans-15" transform="translate(419.84375 0)"/>
      <use xlink:href="#DejaVuSans-11" transform="translate(483.46875 0)"/>
      <use xlink:href="#DejaVuSans-25" transform="translate(515.25 0)"/>
     </g>
    </g>
    <g id="line2d_47">
     <path d="M 536.654531 425.578406 
L 546.654531 425.578406 
L 556.654531 425.578406 
" style="fill: none; stroke: #5f5aa2; stroke-width: 2; stroke-linecap: square"/>
    </g>
    <g id="text_27">
     <!-- LEVEL_03 -->
     <g transform="translate(564.654531 429.078406) scale(0.1 -0.1)">
      <use xlink:href="#DejaVuSans-2f"/>
      <use xlink:href="#DejaVuSans-28" transform="translate(55.71875 0)"/>
      <use xlink:href="#DejaVuSans-39" transform="translate(118.90625 0)"/>
      <use xlink:href="#DejaVuSans-28" transform="translate(187.3125 0)"/>
      <use xlink:href="#DejaVuSans-2f" transform="translate(250.5 0)"/>
      <use xlink:href="#DejaVuSans-42" transform="translate(306.21875 0)"/>
      <use xlink:href="#DejaVuSans-13" transform="translate(356.21875 0)"/>
      <use xlink:href="#DejaVuSans-16" transform="translate(419.84375 0)"/>
     </g>
    </g>
    <g id="line2d_48">
     <path d="M 536.654531 440.579187 
L 546.654531 440.579187 
L 556.654531 440.579187 
" style="fill: none; stroke: #222222; stroke-width: 2; stroke-linecap: square"/>
    </g>
    <g id="text_28">
     <!-- Environment -->
     <g transform="translate(564.654531 444.079187) scale(0.1 -0.1)">
      <defs>
       <path id="DejaVuSans-59" d="M 191 3500 
L 800 3500 
L 1894 563 
L 2988 3500 
L 3597 3500 
L 2284 0 
L 1503 0 
L 191 3500 
z
" transform="scale(0.015625)"/>
      </defs>
      <use xlink:href="#DejaVuSans-28"/>
      <use xlink:href="#DejaVuSans-51" transform="translate(63.1875 0)"/>
      <use xlink:href="#DejaVuSans-59" transform="translate(126.5625 0)"/>
      <use xlink:href="#DejaVuSans-4c" transform="translate(185.75 0)"/>
      <use xlink:href="#DejaVuSans-55" transform="translate(213.53125 0)"/>
      <use xlink:href="#DejaVuSans-52" transform="translate(252.4375 0)"/>
      <use xlink:href="#DejaVuSans-51" transform="translate(313.625 0)"/>
      <use xlink:href="#DejaVuSans-50" transform="translate(377 0)"/>
      <use xlink:href="#DejaVuSans-48" transform="translate(474.40625 0)"/>
      <use xlink:href="#DejaVuSans-51" transform="translate(535.9375 0)"/>
      <use xlink:href="#DejaVuSans-57" transform="translate(599.3125 0)"/>
     </g>
    </g>
   </g>
  </g>
 </g>
 <defs>
  <clipPath id="pa9be0628db">
   <rect x="38.99774" y="19.030178" width="818.502645" height="342.130253"/>
  </clipPath>
 </defs>
</svg>
